<?xml version="1.0" encoding="UTF-8"?>
<!DOCTYPE svg PUBLIC "-//W3C//DTD SVG 1.1//EN" "http://www.w3.org/Graphics/SVG/1.1/DTD/svg11.dtd">
<svg xmlns="http://www.w3.org/2000/svg" version="1.1" width="2560px" height="670px" style="shape-rendering:geometricPrecision; text-rendering:geometricPrecision; image-rendering:optimizeQuality; fill-rule:evenodd; clip-rule:evenodd" xmlns:xlink="http://www.w3.org/1999/xlink">
<g><path style="opacity:0.361" fill="#201210" d="M 572.5,238.5 C 572.833,169.665 572.499,100.998 571.5,32.5C 402.001,31.5003 232.334,31.167 62.5,31.5C 62.5,96.1667 62.5,160.833 62.5,225.5C 61.8333,225.5 61.1667,225.5 60.5,225.5C 60.5,160.5 60.5,95.5 60.5,30.5C 231.167,30.3333 401.834,30.5 572.5,31C 573.833,100.264 573.833,169.431 572.5,238.5 Z"/></g>
<g><path style="opacity:1" fill="#a91723" d="M 571.5,32.5 C 571.493,104.207 571.493,175.707 571.5,247C 564.575,333.29 536.575,411.79 487.5,482.5C 441.344,545.661 385.01,597.661 318.5,638.5C 309.33,634.414 300.33,630.081 291.5,625.5C 290.341,623.75 288.674,622.75 286.5,622.5C 284.371,620.05 281.704,618.383 278.5,617.5C 278.027,616.094 277.027,615.427 275.5,615.5C 275.027,614.094 274.027,613.427 272.5,613.5C 272.027,612.094 271.027,611.427 269.5,611.5C 269.027,610.094 268.027,609.427 266.5,609.5C 266.027,608.094 265.027,607.427 263.5,607.5C 262.738,605.738 261.404,604.738 259.5,604.5C 257.704,602.1 255.37,600.433 252.5,599.5C 250.051,596.444 247.051,594.111 243.5,592.5C 242.415,590.413 240.749,589.08 238.5,588.5C 237.089,586.086 235.089,584.419 232.5,583.5C 230.761,580.757 228.427,578.757 225.5,577.5C 222.437,573.434 218.771,570.101 214.5,567.5C 206.452,558.785 198.119,550.452 189.5,542.5C 187.57,538.9 184.903,535.9 181.5,533.5C 180.243,530.573 178.243,528.239 175.5,526.5C 105.834,438.722 68.167,338.389 62.5,225.5C 62.5,160.833 62.5,96.1667 62.5,31.5C 232.334,31.167 402.001,31.5003 571.5,32.5 Z"/></g>
<g><path style="opacity:1" fill="#171512" d="M 125.5,94.5 C 127.857,94.3367 130.19,94.5034 132.5,95C 136.372,97.7018 140.705,99.0351 145.5,99C 159.468,100.176 173.468,100.842 187.5,101C 192.098,104.256 196.764,104.256 201.5,101C 216.17,100.84 230.837,100.84 245.5,101C 250.551,98.8043 255.551,96.6376 260.5,94.5C 263.89,96.3776 266.89,98.8776 269.5,102C 275.13,101.544 280.796,101.544 286.5,102C 287.308,102.308 287.975,102.808 288.5,103.5C 290.013,112.404 291.013,121.404 291.5,130.5C 296.706,132.02 302.039,132.853 307.5,133C 310.907,135.245 312.24,138.412 311.5,142.5C 312.191,146.807 310.857,150.307 307.5,153C 301.941,154.627 296.441,156.127 291,157.5C 289.732,177.835 289.565,198.168 290.5,218.5C 294.404,220.999 298.737,222.166 303.5,222C 311.21,224.919 314.043,230.419 312,238.5C 310.542,240.96 308.709,243.127 306.5,245C 300.515,245.749 294.682,246.916 289,248.5C 288.896,257.972 287.896,267.306 286,276.5C 285.097,277.701 283.931,278.535 282.5,279C 256.134,279.621 229.8,279.621 203.5,279C 199.854,285.124 194.52,287.124 187.5,285C 184.339,283.587 181.339,281.92 178.5,280C 152.828,279.076 127.162,278.076 101.5,277C 100.299,276.097 99.4652,274.931 99,273.5C 98.6667,264.833 98.3333,256.167 98,247.5C 91.979,245.346 85.8123,243.679 79.5,242.5C 73.7152,235.285 74.3818,228.785 81.5,223C 86.7504,221.826 92.0838,221.159 97.5,221C 98,220.5 98.5,220 99,219.5C 98.908,198.173 98.5747,176.84 98,155.5C 97.2496,154.874 96.4162,154.374 95.5,154C 90.0838,153.841 84.7504,153.174 79.5,152C 74.2903,145.518 74.6236,139.185 80.5,133C 86.4209,131.787 92.4209,130.953 98.5,130.5C 99.2489,121.533 99.7489,112.533 100,103.5C 100.903,102.299 102.069,101.465 103.5,101C 109.833,100.667 116.167,100.333 122.5,100C 124.174,98.4941 125.174,96.6607 125.5,94.5 Z"/></g>
<g><path style="opacity:1" fill="#161411" d="M 371.5,94.5 C 373.857,94.3367 376.19,94.5034 378.5,95C 382.069,97.5229 386.069,98.8562 390.5,99C 404.805,100.156 419.138,100.823 433.5,101C 438.167,104.333 442.833,104.333 447.5,101C 461.506,100.744 475.506,100.744 489.5,101C 495.598,99.694 501.264,97.5273 506.5,94.5C 507.5,94.8333 508.5,95.1667 509.5,95.5C 511.316,97.8169 513.316,99.9835 515.5,102C 521.13,101.544 526.796,101.544 532.5,102C 533.308,102.308 533.975,102.808 534.5,103.5C 536.013,112.404 537.013,121.404 537.5,130.5C 542.706,132.02 548.039,132.853 553.5,133C 556.913,135.199 558.247,138.366 557.5,142.5C 558.191,146.807 556.857,150.307 553.5,153C 547.941,154.627 542.441,156.127 537,157.5C 535.732,177.835 535.565,198.168 536.5,218.5C 540.404,220.999 544.737,222.166 549.5,222C 557.21,224.919 560.043,230.419 558,238.5C 556.542,240.96 554.709,243.127 552.5,245C 546.515,245.749 540.682,246.916 535,248.5C 534.896,257.972 533.896,267.306 532,276.5C 531.097,277.701 529.931,278.535 528.5,279C 502.134,279.621 475.8,279.621 449.5,279C 445.854,285.124 440.52,287.124 433.5,285C 430.339,283.587 427.339,281.92 424.5,280C 398.827,279.093 373.161,278.093 347.5,277C 346.299,276.097 345.465,274.931 345,273.5C 344.667,264.833 344.333,256.167 344,247.5C 337.979,245.346 331.812,243.679 325.5,242.5C 319.715,235.285 320.382,228.785 327.5,223C 332.75,221.826 338.084,221.159 343.5,221C 344,220.5 344.5,220 345,219.5C 344.928,198.172 344.594,176.839 344,155.5C 343.25,154.874 342.416,154.374 341.5,154C 336.084,153.841 330.75,153.174 325.5,152C 321.058,147.935 320.225,143.102 323,137.5C 323.785,135.714 324.951,134.214 326.5,133C 332.45,131.837 338.45,131.004 344.5,130.5C 345.249,121.533 345.749,112.533 346,103.5C 346.903,102.299 348.069,101.465 349.5,101C 355.833,100.667 362.167,100.333 368.5,100C 370.174,98.4941 371.174,96.6607 371.5,94.5 Z"/></g>
<g><path style="opacity:0.997" fill="#171613" d="M 2345.5,101.5 C 2360.5,101.333 2375.5,101.5 2390.5,102C 2425.94,104.144 2455.78,117.978 2480,143.5C 2504.94,178.491 2510.61,216.491 2497,257.5C 2481.78,293.373 2455.28,316.54 2417.5,327C 2405.04,330.299 2392.37,332.299 2379.5,333C 2353.83,333.08 2328.16,332.58 2302.5,331.5C 2290.5,331.767 2278.5,332.1 2266.5,332.5C 2266.34,330.143 2266.5,327.81 2267,325.5C 2272.63,324.465 2277.8,322.299 2282.5,319C 2284.65,316.531 2286.15,313.698 2287,310.5C 2287.67,248.167 2287.67,185.833 2287,123.5C 2286.3,119.934 2284.47,117.1 2281.5,115C 2277.19,112.34 2272.52,110.673 2267.5,110C 2266.41,107.936 2266.24,105.769 2267,103.5C 2293.27,104.039 2319.44,103.372 2345.5,101.5 Z M 2340.5,117.5 C 2368.74,114.126 2395.41,118.96 2420.5,132C 2445.78,149.024 2459.94,172.857 2463,203.5C 2466.69,232.048 2460.36,258.048 2444,281.5C 2426.27,301.284 2404.1,312.45 2377.5,315C 2360.1,315.965 2342.77,315.465 2325.5,313.5C 2325.5,248.833 2325.5,184.167 2325.5,119.5C 2330.67,119.066 2335.67,118.4 2340.5,117.5 Z"/></g>
<g><path style="opacity:1" fill="#fcfcfc" d="M 133.5,101.5 C 138.844,102.891 144.177,104.391 149.5,106C 161.51,106.332 173.51,106.332 185.5,106C 187.041,107.579 188.208,109.413 189,111.5C 189.536,156.171 189.202,200.838 188,245.5C 186.406,247.982 184.572,248.148 182.5,246C 166.833,245.667 151.167,245.333 135.5,245C 133.376,243.878 131.543,242.378 130,240.5C 129.582,194.825 130.082,149.159 131.5,103.5C 132.522,103.145 133.189,102.478 133.5,101.5 Z"/></g>
<g><path style="opacity:1" fill="#fafafa" d="M 250.5,102.5 C 252.833,102.5 255.167,102.5 257.5,102.5C 257.558,148.506 257.058,194.506 256,240.5C 255.5,241.5 255,242.5 254.5,243.5C 251.856,244.396 249.19,245.229 246.5,246C 235.99,246.625 225.49,246.458 215,245.5C 207.8,246.258 200.633,247.258 193.5,248.5C 194.82,202.513 195.654,156.513 196,110.5C 197.952,108.106 200.452,106.606 203.5,106C 218.873,105.899 234.206,105.233 249.5,104C 250.056,103.617 250.389,103.117 250.5,102.5 Z"/></g>
<g><path style="opacity:1" fill="#fafafa" d="M 379.5,101.5 C 394.451,106.542 409.784,107.876 425.5,105.5C 432.325,105.154 435.825,108.488 436,115.5C 435.963,158.838 435.296,202.171 434,245.5C 433.481,246.516 432.647,247.182 431.5,247.5C 424.22,246.305 416.887,245.639 409.5,245.5C 401.169,246.222 392.836,246.389 384.5,246C 380.934,245.3 378.1,243.467 376,240.5C 375.217,194.819 375.717,149.152 377.5,103.5C 378.522,103.145 379.189,102.478 379.5,101.5 Z"/></g>
<g><path style="opacity:0.993" fill="#171613" d="M 1122.5,101.5 C 1129.75,101.187 1136.92,101.52 1144,102.5C 1145.93,110.298 1148.27,117.965 1151,125.5C 1177.33,185.5 1203.67,245.5 1230,305.5C 1234.98,315.81 1242.98,322.476 1254,325.5C 1254.5,327.473 1254.66,329.473 1254.5,331.5C 1227.83,331.5 1201.17,331.5 1174.5,331.5C 1174.34,329.473 1174.5,327.473 1175,325.5C 1189.19,320.934 1192.86,311.934 1186,298.5C 1180.06,285.617 1174.39,272.617 1169,259.5C 1140.57,258.172 1112.07,258.172 1083.5,259.5C 1078.76,271.54 1073.93,283.54 1069,295.5C 1065.44,302.631 1064.78,309.964 1067,317.5C 1070.68,321.423 1075.18,323.923 1080.5,325C 1081.42,327.041 1081.76,329.208 1081.5,331.5C 1059.17,331.5 1036.83,331.5 1014.5,331.5C 1014.34,329.473 1014.5,327.473 1015,325.5C 1028.8,321.7 1038.13,313.034 1043,299.5C 1065.8,244.086 1088.8,188.752 1112,133.5C 1116.41,123.118 1119.91,112.451 1122.5,101.5 Z M 1124.5,157.5 C 1136.32,184.651 1148.32,211.817 1160.5,239C 1137.5,239.667 1114.5,239.667 1091.5,239C 1102.6,211.861 1113.6,184.695 1124.5,157.5 Z"/></g>
<g><path style="opacity:0.996" fill="#171613" d="M 1375.5,101.5 C 1398.58,100.247 1420.58,104.414 1441.5,114C 1465.71,129.926 1474.21,152.093 1467,180.5C 1460.65,196.854 1449.48,208.687 1433.5,216C 1426.94,218.781 1420.27,221.281 1413.5,223.5C 1418.78,227.278 1423.61,231.611 1428,236.5C 1445.09,259.679 1462.42,282.679 1480,305.5C 1485.57,311.742 1491.74,317.242 1498.5,322C 1503.47,324.934 1508.8,326.767 1514.5,327.5C 1514.5,329.5 1514.5,331.5 1514.5,333.5C 1505.2,334.72 1495.87,335.72 1486.5,336.5C 1469.62,336.047 1455.29,329.88 1443.5,318C 1425.56,295.397 1408.4,272.23 1392,248.5C 1380.49,234.599 1365.66,227.266 1347.5,226.5C 1347.33,254.502 1347.5,282.502 1348,310.5C 1348.96,314.468 1351.13,317.635 1354.5,320C 1358.79,322.427 1363.29,324.261 1368,325.5C 1368.5,327.81 1368.66,330.143 1368.5,332.5C 1342.17,331.167 1315.83,331.167 1289.5,332.5C 1289.34,330.143 1289.5,327.81 1290,325.5C 1298.94,324.209 1305.27,319.543 1309,311.5C 1309.67,248.833 1309.67,186.167 1309,123.5C 1308.3,119.934 1306.47,117.1 1303.5,115C 1299.25,112.582 1294.75,110.748 1290,109.5C 1289.5,107.19 1289.34,104.857 1289.5,102.5C 1318.34,103.967 1347.01,103.634 1375.5,101.5 Z M 1359.5,117.5 C 1374.92,116.167 1389.92,118.001 1404.5,123C 1425.69,134.558 1434.19,152.391 1430,176.5C 1423.38,198.418 1408.55,210.252 1385.5,212C 1372.82,212.626 1360.15,212.459 1347.5,211.5C 1347.5,180.833 1347.5,150.167 1347.5,119.5C 1351.66,119.044 1355.66,118.378 1359.5,117.5 Z"/></g>
<g><path style="opacity:0.993" fill="#171613" d="M 1847.5,101.5 C 1854.75,101.187 1861.92,101.52 1869,102.5C 1870.93,110.287 1873.26,117.954 1876,125.5C 1901.27,182.383 1926.27,239.383 1951,296.5C 1954.56,307.375 1961.06,315.875 1970.5,322C 1973.17,323 1975.83,324 1978.5,325C 1979.42,327.041 1979.76,329.208 1979.5,331.5C 1952.83,331.5 1926.17,331.5 1899.5,331.5C 1899.34,329.473 1899.5,327.473 1900,325.5C 1914.19,320.934 1917.86,311.934 1911,298.5C 1905.33,285.5 1899.67,272.5 1894,259.5C 1865.57,258.172 1837.07,258.172 1808.5,259.5C 1803.76,271.54 1798.93,283.54 1794,295.5C 1790.44,302.631 1789.78,309.964 1792,317.5C 1795.68,321.423 1800.18,323.923 1805.5,325C 1806.42,327.041 1806.76,329.208 1806.5,331.5C 1784.17,331.5 1761.83,331.5 1739.5,331.5C 1739.34,329.473 1739.5,327.473 1740,325.5C 1753.8,321.7 1763.13,313.034 1768,299.5C 1791.8,241.752 1815.8,184.086 1840,126.5C 1843.01,118.309 1845.51,109.975 1847.5,101.5 Z M 1849.5,157.5 C 1861.58,184.541 1873.58,211.708 1885.5,239C 1862.5,239.667 1839.5,239.667 1816.5,239C 1827.6,211.861 1838.6,184.695 1849.5,157.5 Z"/></g>
<g><path style="opacity:0.993" fill="#171613" d="M 2096.5,101.5 C 2116.05,100.84 2135.05,103.673 2153.5,110C 2183.21,123.594 2194.71,146.427 2188,178.5C 2183.23,192.933 2174.39,204.1 2161.5,212C 2152.71,217.042 2143.38,220.708 2133.5,223C 2140.29,227.458 2146.13,232.958 2151,239.5C 2166.67,260.5 2182.33,281.5 2198,302.5C 2204.2,309.032 2210.7,315.199 2217.5,321C 2222.47,324.045 2227.8,326.211 2233.5,327.5C 2234.47,329.396 2234.8,331.396 2234.5,333.5C 2219.82,336.465 2205.16,336.631 2190.5,334C 2178.24,330.288 2168.08,323.455 2160,313.5C 2145.51,294.52 2131.51,275.187 2118,255.5C 2106.23,237.191 2089.39,227.525 2067.5,226.5C 2067.33,253.835 2067.5,281.169 2068,308.5C 2068.53,312.562 2070.36,315.896 2073.5,318.5C 2077.9,321.692 2082.74,324.025 2088,325.5C 2088.5,327.81 2088.66,330.143 2088.5,332.5C 2062.5,331.181 2036.5,331.181 2010.5,332.5C 2010.34,330.143 2010.5,327.81 2011,325.5C 2020.54,323.908 2026.87,318.574 2030,309.5C 2030.67,247.833 2030.67,186.167 2030,124.5C 2029.15,121.302 2027.65,118.469 2025.5,116C 2021.09,112.876 2016.25,110.709 2011,109.5C 2010.5,107.19 2010.34,104.857 2010.5,102.5C 2039.34,103.967 2068.01,103.634 2096.5,101.5 Z M 2079.5,117.5 C 2090.55,117.15 2101.55,117.65 2112.5,119C 2140.87,126.06 2153.71,144.227 2151,173.5C 2147.85,192.985 2136.68,205.152 2117.5,210C 2100.92,212.783 2084.25,213.283 2067.5,211.5C 2067.5,180.833 2067.5,150.167 2067.5,119.5C 2071.68,119.149 2075.68,118.482 2079.5,117.5 Z"/></g>
<g><path style="opacity:1" fill="#fcfbfb" d="M 497.5,102.5 C 499.5,102.5 501.5,102.5 503.5,102.5C 503.839,149.567 503.006,196.567 501,243.5C 497.741,245.139 494.241,246.306 490.5,247C 479.657,247.633 468.824,247.466 458,246.5C 452.475,246.452 447.142,247.452 442,249.5C 441.228,249.355 440.561,249.022 440,248.5C 440.782,202.85 441.449,157.183 442,111.5C 443.738,108.768 446.238,107.268 449.5,107C 462.167,106.667 474.833,106.333 487.5,106C 490.576,105.654 493.576,104.988 496.5,104C 497.056,103.617 497.389,103.117 497.5,102.5 Z"/></g>
<g><path style="opacity:0.994" fill="#171613" d="M 737.5,102.5 C 762.499,103.821 787.499,103.821 812.5,102.5C 812.663,104.857 812.497,107.19 812,109.5C 807.683,110.907 803.516,112.74 799.5,115C 796.769,117.626 794.936,120.793 794,124.5C 793.5,150.498 793.333,176.498 793.5,202.5C 837.167,202.5 880.833,202.5 924.5,202.5C 924.667,175.831 924.5,149.165 924,122.5C 923.269,120.101 922.102,117.935 920.5,116C 916.31,113.155 911.81,110.988 907,109.5C 906.503,107.19 906.337,104.857 906.5,102.5C 931.167,103.833 955.833,103.833 980.5,102.5C 980.5,105.167 980.5,107.833 980.5,110.5C 971.659,110.847 965.826,115.18 963,123.5C 962.333,186.167 962.333,248.833 963,311.5C 963.7,315.066 965.533,317.9 968.5,320C 972.288,321.978 976.121,323.811 980,325.5C 980.495,327.473 980.662,329.473 980.5,331.5C 955.833,331.5 931.167,331.5 906.5,331.5C 906.338,329.473 906.505,327.473 907,325.5C 914.9,324.054 920.567,319.72 924,312.5C 924.5,282.502 924.667,252.502 924.5,222.5C 880.833,222.5 837.167,222.5 793.5,222.5C 793.333,251.835 793.5,281.169 794,310.5C 794.917,314.164 796.75,317.33 799.5,320C 803.516,322.26 807.683,324.093 812,325.5C 812.495,327.473 812.662,329.473 812.5,331.5C 787.5,331.5 762.5,331.5 737.5,331.5C 737.338,329.473 737.505,327.473 738,325.5C 745.494,323.933 751.161,319.933 755,313.5C 756.14,281.529 756.64,249.529 756.5,217.5C 756.333,187.833 756.167,158.167 756,128.5C 754.537,118.033 748.537,111.699 738,109.5C 737.503,107.19 737.337,104.857 737.5,102.5 Z"/></g>
<g><path style="opacity:0.995" fill="#171613" d="M 1505.5,103.5 C 1532.84,104.723 1560.17,104.723 1587.5,103.5C 1587.5,105.833 1587.5,108.167 1587.5,110.5C 1576.46,111.693 1571.62,117.693 1573,128.5C 1595.14,179.916 1617.47,231.249 1640,282.5C 1660.89,233.395 1681.22,184.062 1701,134.5C 1706.14,121.114 1701.64,113.114 1687.5,110.5C 1687.5,108.167 1687.5,105.833 1687.5,103.5C 1709.49,104.613 1731.49,104.613 1753.5,103.5C 1753.5,105.833 1753.5,108.167 1753.5,110.5C 1741.92,113.211 1733.42,119.878 1728,130.5C 1698.94,197.67 1670.28,265.003 1642,332.5C 1635.58,333.643 1629.08,333.81 1622.5,333C 1591.87,265.575 1561.37,198.075 1531,130.5C 1525.85,119.517 1517.35,112.85 1505.5,110.5C 1505.5,108.167 1505.5,105.833 1505.5,103.5 Z"/></g>
<g><path style="opacity:1" fill="#f8f8f8" d="M 110.5,105.5 C 113.261,104.915 114.927,105.915 115.5,108.5C 113.867,112.696 112.701,117.029 112,121.5C 111.015,168.225 111.348,214.892 113,261.5C 113.903,262.701 115.069,263.535 116.5,264C 136.5,264.333 156.5,264.667 176.5,265C 179.473,266.224 180.14,268.224 178.5,271C 154.833,271.667 131.167,271.667 107.5,271C 106.667,270.167 105.833,269.333 105,268.5C 104.667,260.833 104.333,253.167 104,245.5C 101.086,240.624 96.9195,238.958 91.5,240.5C 84.3184,240.705 81.1517,237.372 82,230.5C 86.9503,227.272 92.4503,225.772 98.5,226C 100.848,225.89 102.348,224.723 103,222.5C 103.833,198.826 103.666,175.16 102.5,151.5C 100.615,150.391 98.6147,149.557 96.5,149C 91.7176,148.881 87.0509,148.215 82.5,147C 80.2299,142.11 81.5632,138.777 86.5,137C 90.8333,136.667 95.1667,136.333 99.5,136C 100.667,134.833 101.833,133.667 103,132.5C 104.066,124.886 104.899,117.22 105.5,109.5C 107.21,108.113 108.877,106.779 110.5,105.5 Z"/></g>
<g><path style="opacity:1" fill="#f7f7f7" d="M 356.5,105.5 C 359.261,104.915 360.927,105.915 361.5,108.5C 359.867,112.696 358.701,117.029 358,121.5C 357.015,168.225 357.348,214.892 359,261.5C 359.833,262.333 360.667,263.167 361.5,264C 381.833,264.333 402.167,264.667 422.5,265C 425.473,266.224 426.14,268.224 424.5,271C 400.833,271.667 377.167,271.667 353.5,271C 352.667,270.167 351.833,269.333 351,268.5C 350.667,260.833 350.333,253.167 350,245.5C 347.205,240.765 343.205,239.098 338,240.5C 331.065,240.424 327.732,237.09 328,230.5C 332.915,227.146 338.415,225.646 344.5,226C 346.848,225.89 348.348,224.723 349,222.5C 349.833,198.826 349.666,175.16 348.5,151.5C 342.793,149.02 336.793,147.854 330.5,148C 324.741,143.348 325.408,139.682 332.5,137C 336.167,136.667 339.833,136.333 343.5,136C 346.573,135.261 348.74,133.428 350,130.5C 350.169,123.476 350.669,116.476 351.5,109.5C 353.21,108.113 354.877,106.779 356.5,105.5 Z"/></g>
<g><path style="opacity:1" fill="#f5f5f5" d="M 276.5,106.5 C 280.061,106.365 282.895,107.698 285,110.5C 285.333,118.167 285.667,125.833 286,133.5C 286.833,134.333 287.667,135.167 288.5,136C 295.131,135.774 301.297,137.274 307,140.5C 307.944,143.347 307.444,145.847 305.5,148C 299.581,149.196 293.581,149.862 287.5,150C 287,150.5 286.5,151 286,151.5C 284.544,175.15 284.21,198.817 285,222.5C 285.5,224.333 286.667,225.5 288.5,226C 293.547,226.338 298.547,227.005 303.5,228C 306.519,230.613 307.186,233.779 305.5,237.5C 298.946,238.996 292.279,239.996 285.5,240.5C 283.862,249.407 282.695,258.407 282,267.5C 281.215,269.286 280.049,270.786 278.5,272C 254.833,272.667 231.167,272.667 207.5,272C 204.833,270 204.833,268 207.5,266C 229.406,265.828 251.239,265.328 273,264.5C 276.136,214.897 277.136,165.231 276,115.5C 275.167,113.833 274.333,112.167 273.5,110.5C 274.524,109.148 275.524,107.815 276.5,106.5 Z"/></g>
<g><path style="opacity:1" fill="#f6f6f6" d="M 522.5,106.5 C 526.061,106.365 528.895,107.698 531,110.5C 531.333,118.167 531.667,125.833 532,133.5C 532.833,134.333 533.667,135.167 534.5,136C 541.162,135.66 547.329,137.16 553,140.5C 553.944,143.347 553.444,145.847 551.5,148C 545.581,149.196 539.581,149.862 533.5,150C 532.299,150.903 531.465,152.069 531,153.5C 530.333,176.5 530.333,199.5 531,222.5C 531.5,224.333 532.667,225.5 534.5,226C 539.547,226.338 544.547,227.005 549.5,228C 552.519,230.613 553.186,233.779 551.5,237.5C 545.06,239.006 538.56,240.006 532,240.5C 531.138,242.087 530.471,243.754 530,245.5C 529.617,252.86 528.95,260.193 528,267.5C 527.215,269.286 526.049,270.786 524.5,272C 500.833,272.667 477.167,272.667 453.5,272C 450.833,270 450.833,268 453.5,266C 475.406,265.828 497.239,265.328 519,264.5C 522.15,214.898 523.15,165.231 522,115.5C 521.167,113.833 520.333,112.167 519.5,110.5C 520.524,109.148 521.524,107.815 522.5,106.5 Z"/></g>
<g><path style="opacity:1" fill="#f9f9f9" d="M 264.5,107.5 C 266.39,107.297 267.89,107.963 269,109.5C 270,111.5 271,113.5 272,115.5C 272.479,160.866 271.979,206.199 270.5,251.5C 265.851,250.349 263.018,247.349 262,242.5C 261.333,198.5 261.333,154.5 262,110.5C 263.045,109.627 263.878,108.627 264.5,107.5 Z"/></g>
<g><path style="opacity:1" fill="#f9f8f8" d="M 510.5,107.5 C 512.39,107.297 513.89,107.963 515,109.5C 516.275,111.717 517.275,114.051 518,116.5C 518.431,161.532 517.931,206.532 516.5,251.5C 511.851,250.349 509.018,247.349 508,242.5C 507.333,198.5 507.333,154.5 508,110.5C 509.045,109.627 509.878,108.627 510.5,107.5 Z"/></g>
<g><path style="opacity:1" fill="#f9f9f9" d="M 121.5,109.5 C 122.833,109.5 124.167,109.5 125.5,109.5C 124.859,154.164 124.359,198.83 124,243.5C 123.153,247.505 120.986,250.505 117.5,252.5C 116.914,252.291 116.414,251.957 116,251.5C 115.333,207.833 115.333,164.167 116,120.5C 116.787,116.259 118.621,112.592 121.5,109.5 Z"/></g>
<g><path style="opacity:1" fill="#f7f7f7" d="M 367.5,109.5 C 368.822,109.33 369.989,109.663 371,110.5C 371.175,155.167 370.842,199.834 370,244.5C 368.997,248.205 366.83,250.871 363.5,252.5C 362.914,252.291 362.414,251.957 362,251.5C 361.333,207.833 361.333,164.167 362,120.5C 362.787,116.259 364.621,112.592 367.5,109.5 Z"/></g>
<g><path style="opacity:1" fill="#13110e" d="M 210.5,146.5 C 217.808,147.172 225.142,147.338 232.5,147C 233.971,150.321 234.637,153.821 234.5,157.5C 230.655,154.758 226.321,152.758 221.5,151.5C 218.896,152.269 217.062,153.936 216,156.5C 215.097,162.281 215.43,167.947 217,173.5C 221.523,175.217 225.357,174.217 228.5,170.5C 229.167,170.667 229.833,170.833 230.5,171C 231.61,174.449 231.61,177.949 230.5,181.5C 227.051,180.361 223.551,179.361 220,178.5C 217.966,178.354 216.299,179.02 215,180.5C 214.333,187.833 214.333,195.167 215,202.5C 215.956,203.579 216.789,204.745 217.5,206C 222.689,206.985 227.689,206.485 232.5,204.5C 233.851,201.804 235.684,199.47 238,197.5C 242.329,210.015 237.829,215.015 224.5,212.5C 218.466,212.398 212.466,211.898 206.5,211C 203.968,210.388 203.135,208.888 204,206.5C 205,204.833 206,203.167 207,201.5C 207.667,185.833 207.667,170.167 207,154.5C 203.994,153.159 202.494,150.825 202.5,147.5C 205.385,147.806 208.052,147.473 210.5,146.5 Z"/></g>
<g><path style="opacity:1" fill="#13110e" d="M 388.5,146.5 C 396.84,146.334 405.173,146.5 413.5,147C 426.134,151.785 429.968,160.618 425,173.5C 422.273,176.731 419.106,179.397 415.5,181.5C 414.123,184.577 414.29,187.577 416,190.5C 420.167,196.833 424.333,203.167 428.5,209.5C 428.291,210.086 427.957,210.586 427.5,211C 425.5,211.667 423.5,211.667 421.5,211C 415.534,202.891 409.701,194.724 404,186.5C 402.739,186.759 401.739,187.426 401,188.5C 400.333,192.833 400.333,197.167 401,201.5C 401.748,203.332 402.748,204.999 404,206.5C 404.667,208.167 404.667,209.833 404,211.5C 398.894,212.545 393.727,212.545 388.5,211.5C 388.299,208.235 389.466,205.569 392,203.5C 392.667,187.167 392.667,170.833 392,154.5C 388.507,152.598 387.34,149.931 388.5,146.5 Z"/></g>
<g><path style="opacity:1" fill="#151411" d="M 459.5,146.5 C 464.547,146.337 469.547,146.671 474.5,147.5C 474.66,149.199 474.494,150.866 474,152.5C 472.26,153.716 471.26,155.382 471,157.5C 470.333,173.167 470.333,188.833 471,204.5C 472.182,206.344 473.349,208.177 474.5,210C 474.095,210.945 473.428,211.612 472.5,212C 467.167,212.667 461.833,212.667 456.5,212C 455.483,210.951 455.316,209.784 456,208.5C 457.829,206.844 459.163,204.844 460,202.5C 460.667,186.833 460.667,171.167 460,155.5C 457.274,152.406 457.107,149.406 459.5,146.5 Z"/></g>
<g><path style="opacity:1" fill="#141210" d="M 135.5,146.5 C 141.758,146.19 147.924,146.524 154,147.5C 155.075,151.067 154.242,154.067 151.5,156.5C 154.497,167.99 157.997,179.324 162,190.5C 163.079,192.394 164.413,192.727 166,191.5C 169.346,180.964 172.179,170.297 174.5,159.5C 173.905,156.048 172.905,152.714 171.5,149.5C 171.709,148.914 172.043,148.414 172.5,148C 176.61,146.857 180.276,147.523 183.5,150C 181.599,152.97 180.099,156.136 179,159.5C 176.211,171.578 173.211,183.578 170,195.5C 168.031,200.4 165.865,205.233 163.5,210C 161.097,210.63 159.263,209.797 158,207.5C 152.535,190.104 146.868,172.771 141,155.5C 138.815,154.072 136.815,152.405 135,150.5C 134.421,149.072 134.588,147.738 135.5,146.5 Z"/></g>
<g><path style="opacity:1" fill="#f1f1f0" d="M 404.5,151.5 C 412.994,151.815 417.994,156.315 419.5,165C 417.958,171.944 413.958,176.777 407.5,179.5C 405.303,179.152 403.47,178.152 402,176.5C 401.333,169.167 401.333,161.833 402,154.5C 402.698,153.309 403.531,152.309 404.5,151.5 Z"/></g>
<g><path style="opacity:1" fill="#f9f9f9" d="M 373.5,248.5 C 377.654,248.631 381.654,249.464 385.5,251C 400.167,251.333 414.833,251.667 429.5,252C 435.397,257.142 434.397,259.976 426.5,260.5C 424.077,260.406 421.744,259.906 419.5,259C 403.167,258.667 386.833,258.333 370.5,258C 369.424,256.274 369.257,254.441 370,252.5C 371.376,251.295 372.542,249.962 373.5,248.5 Z"/></g>
<g><path style="opacity:1" fill="#f8f8f8" d="M 126.5,249.5 C 130.702,249.384 134.702,250.217 138.5,252C 153.167,252.333 167.833,252.667 182.5,253C 188.018,257.488 187.185,260.322 180,261.5C 176.825,261.054 173.658,260.554 170.5,260C 154.49,259.833 138.49,259.333 122.5,258.5C 121.572,257.232 121.405,255.899 122,254.5C 123.707,252.963 125.207,251.296 126.5,249.5 Z"/></g>
<g><path style="opacity:1" fill="#f9f9f9" d="M 500.5,249.5 C 507.322,248.311 511.989,250.977 514.5,257.5C 513.663,259.505 512.163,260.505 510,260.5C 491.007,259.193 472.007,259.193 453,260.5C 444.721,260.319 443.555,257.486 449.5,252C 450.667,251.833 451.833,251.667 453,251.5C 466.149,252.601 479.316,252.768 492.5,252C 495.457,251.721 498.123,250.887 500.5,249.5 Z"/></g>
<g><path style="opacity:1" fill="#f9f8f8" d="M 252.5,250.5 C 257.535,249.502 261.702,250.835 265,254.5C 268.698,258.101 268.031,260.435 263,261.5C 243.506,260.186 224.006,260.186 204.5,261.5C 197.487,260.281 196.821,257.448 202.5,253C 203.667,252.833 204.833,252.667 206,252.5C 219.816,253.605 233.65,253.771 247.5,253C 249.491,252.626 251.158,251.793 252.5,250.5 Z"/></g>
<g><path style="opacity:1" fill="#f6f6f6" d="M 437.5,259.5 C 445.171,260.347 448.671,264.68 448,272.5C 445.928,277.143 442.428,278.643 437.5,277C 430.864,271.091 430.864,265.258 437.5,259.5 Z"/></g>
<g><path style="opacity:1" fill="#f5f5f5" d="M 190.5,260.5 C 192.199,260.34 193.866,260.506 195.5,261C 199.173,264.499 201.007,268.666 201,273.5C 198.774,277.861 195.274,279.361 190.5,278C 185.845,275.103 184.345,270.937 186,265.5C 187.025,263.313 188.525,261.646 190.5,260.5 Z"/></g>
<g><path style="opacity:0.992" fill="#481111" d="M 571.5,32.5 C 572.499,100.998 572.833,169.665 572.5,238.5C 568.144,328.244 540.144,409.577 488.5,482.5C 488.167,482.5 487.833,482.5 487.5,482.5C 536.575,411.79 564.575,333.29 571.5,247C 571.493,175.707 571.493,104.207 571.5,32.5 Z"/></g>
<g><path style="opacity:1" fill="#151311" d="M 229.5,336.5 C 236.955,341.375 245.288,344.208 254.5,345C 270.147,344.224 285.814,343.891 301.5,344C 306.183,344.616 310.516,346.116 314.5,348.5C 320.193,344.819 326.527,343.153 333.5,343.5C 347.802,345.086 362.135,345.586 376.5,345C 383.484,343.558 390.317,341.725 397,339.5C 400.923,339.474 404.423,340.641 407.5,343C 413.833,343.333 420.167,343.667 426.5,344C 428.96,345.458 431.127,347.291 433,349.5C 433.734,356.027 433.567,362.527 432.5,369C 432.741,370.984 433.408,372.817 434.5,374.5C 439.132,375.328 443.798,375.828 448.5,376C 457.887,381.041 458.887,387.374 451.5,395C 446.65,396.732 441.65,397.732 436.5,398C 435.283,399.648 434.45,401.481 434,403.5C 432.576,423.482 432.243,443.482 433,463.5C 433.5,464 434,464.5 434.5,465C 440.581,465.138 446.581,465.804 452.5,467C 455.907,469.245 457.24,472.412 456.5,476.5C 456.995,479.948 455.995,482.781 453.5,485C 447.055,487.529 440.555,489.695 434,491.5C 432.76,499.757 432.093,508.091 432,516.5C 430.833,519 429,520.833 426.5,522C 420.295,522.032 414.295,522.866 408.5,524.5C 404.855,523.96 401.188,523.626 397.5,523.5C 374.508,524.246 351.508,524.746 328.5,525C 323.405,526.624 318.238,528.124 313,529.5C 311.5,529.333 310,529.167 308.5,529C 306.343,527.088 304.009,525.421 301.5,524C 278.332,523.603 255.166,523.77 232,524.5C 222.833,524.333 213.667,524.167 204.5,524C 202.479,523.487 200.979,522.32 200,520.5C 199.245,511.173 198.578,501.84 198,492.5C 191.562,490.928 185.062,489.428 178.5,488C 170.5,481.333 170.5,474.667 178.5,468C 184.39,466.755 190.39,466.088 196.5,466C 197.126,465.25 197.626,464.416 198,463.5C 198.667,442.833 198.667,422.167 198,401.5C 195.841,399.35 193.341,399.017 190.5,400.5C 185.769,399.379 181.102,398.045 176.5,396.5C 169.977,387.771 171.644,380.938 181.5,376C 186.87,375.562 192.203,375.562 197.5,376C 198,375.5 198.5,375 199,374.5C 199.333,366.167 199.667,357.833 200,349.5C 201.637,347.19 203.804,345.69 206.5,345C 211.475,345.328 216.475,345.328 221.5,345C 224.399,342.271 227.066,339.438 229.5,336.5 Z"/></g>
<g><path style="opacity:1" fill="#fcfcfc" d="M 391.5,345.5 C 393.792,345.244 395.959,345.577 398,346.5C 398.508,391.869 398.508,437.202 398,482.5C 395.447,487.584 391.281,490.084 385.5,490C 366.833,490.046 348.166,490.046 329.5,490C 325.54,490.781 321.707,491.948 318,493.5C 317.055,493.095 316.388,492.428 316,491.5C 315.833,489.667 315.667,487.833 315.5,486C 316.389,468.171 316.556,450.337 316,432.5C 317.019,431.313 318.186,430.313 319.5,429.5C 321.499,431.493 322.999,433.827 324,436.5C 324.354,441.338 324.52,446.005 324.5,450.5C 329.78,451.618 335.113,451.784 340.5,451C 341.308,450.692 341.975,450.192 342.5,449.5C 338.495,446.654 335.328,442.987 333,438.5C 328.907,419.457 323.573,400.79 317,382.5C 316.333,373.5 316.333,364.5 317,355.5C 318.555,352.945 320.722,351.112 323.5,350C 342.824,350.434 362.157,350.434 381.5,350C 385.061,348.768 388.394,347.268 391.5,345.5 Z"/></g>
<g><path style="opacity:1" fill="#fcfcfc" d="M 231.5,346.5 C 234.893,346.062 237.893,346.895 240.5,349C 248.507,349.389 256.507,349.889 264.5,350.5C 277.822,349.451 291.155,349.285 304.5,350C 306.286,350.785 307.786,351.951 309,353.5C 310.617,363.734 310.95,374.067 310,384.5C 305.298,404.349 299.964,424.016 294,443.5C 292.145,445.355 290.312,447.188 288.5,449C 288.645,449.772 288.978,450.439 289.5,451C 299.226,454.185 302.893,451.018 300.5,441.5C 301.178,438.456 302.011,435.456 303,432.5C 305.667,428.5 308.333,428.5 311,432.5C 310.96,451.863 310.46,471.196 309.5,490.5C 308.167,490.833 306.833,491.167 305.5,491.5C 283.847,490.711 262.18,490.211 240.5,490C 236.952,489.559 233.952,488.059 231.5,485.5C 230.493,439.213 230.493,392.88 231.5,346.5 Z"/></g>
<g><path style="opacity:1" fill="#f6f6f6" d="M 415.5,350.5 C 418.85,350.335 422.183,350.502 425.5,351C 427.237,354.026 428.237,357.359 428.5,361C 423.58,375.169 428.58,381.835 443.5,381C 450.773,382.195 452.106,385.528 447.5,391C 442.5,391.333 437.5,391.667 432.5,392C 430.333,392.833 428.833,394.333 428,396.5C 427.453,419.841 427.119,443.174 427,466.5C 427.465,467.931 428.299,469.097 429.5,470C 435.833,471 442.167,472 448.5,473C 451.425,476.696 451.092,480.029 447.5,483C 442.833,483.333 438.167,483.667 433.5,484C 431.481,484.45 429.648,485.283 428,486.5C 426.965,495.136 426.298,503.803 426,512.5C 424.661,515.094 422.494,516.594 419.5,517C 389.167,517.667 358.833,517.667 328.5,517C 324.624,514.461 324.624,512.128 328.5,510C 354.167,509.667 379.833,509.333 405.5,509C 409.095,508.439 412.428,507.272 415.5,505.5C 416.098,504.205 416.598,502.872 417,501.5C 418.577,453.514 418.911,405.514 418,357.5C 416.097,355.559 415.264,353.226 415.5,350.5 Z"/></g>
<g><path style="opacity:1" fill="#f8f8f8" d="M 208.5,350.5 C 211.702,350.77 214.702,351.604 217.5,353C 214.982,356.868 213.149,361.035 212,365.5C 211.01,413.25 211.343,460.917 213,508.5C 241.095,509.329 269.261,509.829 297.5,510C 301.172,511.365 301.506,513.365 298.5,516C 268.532,518.083 238.532,518.749 208.5,518C 206.513,516.681 205.346,514.848 205,512.5C 204.902,504.423 204.235,496.423 203,488.5C 201.2,486.683 199.034,485.516 196.5,485C 192.167,484.667 187.833,484.333 183.5,484C 177.57,478.724 178.57,475.058 186.5,473C 191.5,472.667 196.5,472.333 201.5,472C 202,471.5 202.5,471 203,470.5C 203.571,452.835 204.071,435.169 204.5,417.5C 204.633,410.066 204.133,402.733 203,395.5C 202.25,394.874 201.416,394.374 200.5,394C 194.086,393.871 187.753,393.204 181.5,392C 180.196,391.196 179.529,390.029 179.5,388.5C 180.606,385.559 182.606,383.392 185.5,382C 189.833,381.667 194.167,381.333 198.5,381C 200.848,380.654 202.681,379.487 204,377.5C 204.333,371.833 204.667,366.167 205,360.5C 205.331,356.845 206.498,353.512 208.5,350.5 Z"/></g>
<g><path style="opacity:1" fill="#f7f7f7" d="M 404.5,352.5 C 406.199,352.34 407.866,352.506 409.5,353C 411.127,355.754 412.627,358.588 414,361.5C 413.778,406.829 413.611,452.162 413.5,497.5C 411.61,497.703 410.11,497.037 409,495.5C 407.333,492.833 405.667,490.167 404,487.5C 403.172,442.429 403.339,397.429 404.5,352.5 Z"/></g>
<g><path style="opacity:1" fill="#f4f4f3" d="M 222.5,353.5 C 223.496,353.414 224.329,353.748 225,354.5C 225.667,398.833 225.667,443.167 225,487.5C 224.269,493.383 221.102,496.716 215.5,497.5C 215.927,453.5 216.427,409.5 217,365.5C 217.594,360.863 219.428,356.863 222.5,353.5 Z"/></g>
<g><path style="opacity:1" fill="#12110d" d="M 250.5,384.5 C 253.471,384.435 256.138,385.269 258.5,387C 265.833,387.667 273.167,387.667 280.5,387C 282.909,385.293 285.575,384.46 288.5,384.5C 288.665,388.182 288.499,391.848 288,395.5C 287.388,398.032 285.888,398.865 283.5,398C 281.76,395.965 279.926,394.131 278,392.5C 276.739,392.759 275.739,393.426 275,394.5C 274.491,410.514 274.157,426.514 274,442.5C 274.615,444.116 275.615,445.449 277,446.5C 277.667,448.167 277.667,449.833 277,451.5C 271.262,451.911 265.428,451.911 259.5,451.5C 260.323,448.129 261.489,444.796 263,441.5C 263.215,426.482 263.715,411.482 264.5,396.5C 264.167,392.011 261.833,390.511 257.5,392C 254.64,395.216 251.64,397.883 248.5,400C 247.07,394.61 247.736,389.443 250.5,384.5 Z"/></g>
<g><path style="opacity:1" fill="#12110e" d="M 374.5,386.5 C 375.822,386.33 376.989,386.663 378,387.5C 379.58,392.01 379.746,396.51 378.5,401C 374.622,401.162 371.622,399.495 369.5,396C 362.536,392.549 358.203,394.549 356.5,402C 357.301,404.598 358.634,406.931 360.5,409C 367.61,412.637 374.11,417.137 380,422.5C 387.588,434.759 385.088,444.592 372.5,452C 369.833,452.667 367.167,452.667 364.5,452C 361.899,450.529 359.233,449.363 356.5,448.5C 354.159,449.182 351.826,449.849 349.5,450.5C 349.334,445.156 349.501,439.823 350,434.5C 350.414,434.043 350.914,433.709 351.5,433.5C 354.252,436.548 356.919,439.715 359.5,443C 371.205,449.231 376.705,445.731 376,432.5C 371.564,426.518 365.731,422.352 358.5,420C 350.956,414.701 348.122,407.535 350,398.5C 353.345,390.578 359.179,387.578 367.5,389.5C 370.176,389.061 372.509,388.061 374.5,386.5 Z"/></g>
<g><path style="opacity:0.302" fill="#1a1512" d="M 60.5,225.5 C 61.1667,225.5 61.8333,225.5 62.5,225.5C 68.167,338.389 105.834,438.722 175.5,526.5C 130.374,473.265 98.5403,412.598 80,344.5C 69.6054,305.466 63.1054,265.799 60.5,225.5 Z"/></g>
<g><path style="opacity:1" fill="#f0f0ef" d="M 311.5,404.5 C 313.017,404.511 314.184,405.177 315,406.5C 316.807,411.06 318.307,415.727 319.5,420.5C 319.24,422.187 318.573,423.687 317.5,425C 314.167,425.667 310.833,425.667 307.5,425C 305.095,420.319 304.928,415.485 307,410.5C 307.599,407.746 309.099,405.746 311.5,404.5 Z"/></g>
<g><path style="opacity:0.99" fill="#171613" d="M 1841.5,436.5 C 1856.23,436.747 1870.89,437.747 1885.5,439.5C 1885.5,448.167 1885.5,456.833 1885.5,465.5C 1883.86,465.714 1882.36,465.38 1881,464.5C 1878.19,456.359 1872.69,450.859 1864.5,448C 1854.15,444.063 1844.15,444.73 1834.5,450C 1825.35,460.395 1826.02,470.395 1836.5,480C 1847.06,486.448 1858.06,492.114 1869.5,497C 1890.69,508.951 1895.86,525.784 1885,547.5C 1878.55,555.814 1870.05,560.647 1859.5,562C 1853.2,563.179 1846.87,563.513 1840.5,563C 1830.4,561.614 1820.4,559.781 1810.5,557.5C 1810.42,548.822 1810.08,540.155 1809.5,531.5C 1811.17,531.5 1812.83,531.5 1814.5,531.5C 1817.7,544.528 1826.03,551.694 1839.5,553C 1850.31,555.09 1859.81,552.59 1868,545.5C 1872.92,537.29 1872.59,529.29 1867,521.5C 1863.43,518.301 1859.6,515.467 1855.5,513C 1844.02,507.762 1833.02,501.762 1822.5,495C 1807.88,481.615 1805.71,466.449 1816,449.5C 1823.15,442.344 1831.65,438.011 1841.5,436.5 Z"/></g>
<g><path style="opacity:0.983" fill="#171613" d="M 1633.5,437.5 C 1635.83,437.5 1638.17,437.5 1640.5,437.5C 1640.5,445.833 1640.5,454.167 1640.5,462.5C 1639.13,462.657 1637.79,462.49 1636.5,462C 1634.54,456.372 1630.87,452.372 1625.5,450C 1611.89,448.573 1598.23,448.073 1584.5,448.5C 1584.5,462.5 1584.5,476.5 1584.5,490.5C 1596.55,490.865 1608.55,490.365 1620.5,489C 1624.03,487.633 1626.37,485.133 1627.5,481.5C 1628.69,480.571 1630.02,480.238 1631.5,480.5C 1631.5,490.833 1631.5,501.167 1631.5,511.5C 1630.45,511.649 1629.45,511.483 1628.5,511C 1626.43,505.935 1622.77,502.601 1617.5,501C 1606.51,500.5 1595.51,500.333 1584.5,500.5C 1584.5,516.833 1584.5,533.167 1584.5,549.5C 1599.55,549.916 1614.55,549.416 1629.5,548C 1635.84,544.862 1640.5,540.029 1643.5,533.5C 1645.38,534.115 1646.38,535.448 1646.5,537.5C 1645.25,545.143 1644.25,552.809 1643.5,560.5C 1613.18,559.547 1582.85,559.214 1552.5,559.5C 1552.5,558.167 1552.5,556.833 1552.5,555.5C 1557.46,555.381 1560.96,553.048 1563,548.5C 1563.67,515.5 1563.67,482.5 1563,449.5C 1561.03,445.594 1557.87,443.261 1553.5,442.5C 1552.57,441.311 1552.24,439.978 1552.5,438.5C 1579.67,438.831 1606.67,438.498 1633.5,437.5 Z"/></g>
<g><path style="opacity:0.994" fill="#171613" d="M 1035.5,438.5 C 1048.83,438.5 1062.17,438.5 1075.5,438.5C 1075.66,439.873 1075.49,441.207 1075,442.5C 1071.4,443.297 1068.73,445.297 1067,448.5C 1066.33,474.833 1066.33,501.167 1067,527.5C 1068.88,537.717 1074.72,544.55 1084.5,548C 1098.73,552.213 1112.4,550.88 1125.5,544C 1130.87,540.097 1134.37,534.93 1136,528.5C 1136.67,501.833 1136.67,475.167 1136,448.5C 1133.73,445.523 1130.73,443.523 1127,442.5C 1126.51,441.207 1126.34,439.873 1126.5,438.5C 1137.83,438.5 1149.17,438.5 1160.5,438.5C 1160.66,439.873 1160.49,441.207 1160,442.5C 1156.35,443.495 1153.35,445.495 1151,448.5C 1150.67,472.167 1150.33,495.833 1150,519.5C 1148.59,541.574 1137.09,555.074 1115.5,560C 1096.64,563.808 1078.64,561.475 1061.5,553C 1051.72,545.606 1046.55,535.773 1046,523.5C 1045.67,498.5 1045.33,473.5 1045,448.5C 1042.78,445.639 1039.95,443.639 1036.5,442.5C 1035.57,441.311 1035.24,439.978 1035.5,438.5 Z"/></g>
<g><path style="opacity:0.991" fill="#171613" d="M 1189.5,438.5 C 1198.17,438.334 1206.84,438.5 1215.5,439C 1241,469.167 1266.5,499.333 1292,529.5C 1292.67,502.5 1292.67,475.5 1292,448.5C 1289.65,445.495 1286.65,443.495 1283,442.5C 1282.51,441.207 1282.34,439.873 1282.5,438.5C 1293.83,438.5 1305.17,438.5 1316.5,438.5C 1316.76,439.978 1316.43,441.311 1315.5,442.5C 1311.61,443.363 1308.44,445.363 1306,448.5C 1305.5,486.165 1305.33,523.832 1305.5,561.5C 1302.81,561.664 1300.15,561.497 1297.5,561C 1293.05,558.217 1288.88,555.05 1285,551.5C 1261,523.5 1237,495.5 1213,467.5C 1212.33,494.167 1212.33,520.833 1213,547.5C 1214.71,552.445 1218.21,555.111 1223.5,555.5C 1223.5,556.833 1223.5,558.167 1223.5,559.5C 1212.17,559.5 1200.83,559.5 1189.5,559.5C 1189.5,558.167 1189.5,556.833 1189.5,555.5C 1194.79,555.111 1198.29,552.445 1200,547.5C 1200.67,515.833 1200.67,484.167 1200,452.5C 1198.67,447.167 1195.33,443.833 1190,442.5C 1189.51,441.207 1189.34,439.873 1189.5,438.5 Z"/></g>
<g><path style="opacity:0.992" fill="#171613" d="M 1407.5,438.5 C 1421.83,438.5 1436.17,438.5 1450.5,438.5C 1450.76,439.978 1450.43,441.311 1449.5,442.5C 1443.81,443.672 1441.64,447.005 1443,452.5C 1454.47,479.249 1466.14,505.916 1478,532.5C 1489.06,506.661 1499.72,480.661 1510,454.5C 1512.21,448.087 1510.04,444.087 1503.5,442.5C 1502.57,441.311 1502.24,439.978 1502.5,438.5C 1514.5,438.5 1526.5,438.5 1538.5,438.5C 1538.66,439.873 1538.49,441.207 1538,442.5C 1530.03,445.141 1524.69,450.474 1522,458.5C 1507.54,492.417 1493.37,526.417 1479.5,560.5C 1475.56,560.793 1471.73,560.46 1468,559.5C 1452.06,524.618 1436.39,489.618 1421,454.5C 1418.25,448.747 1413.92,444.747 1408,442.5C 1407.51,441.207 1407.34,439.873 1407.5,438.5 Z"/></g>
<g><path style="opacity:0.986" fill="#171613" d="M 1716.5,437.5 C 1726.6,437.182 1736.6,438.016 1746.5,440C 1770.74,448.317 1777.58,464.151 1767,487.5C 1760.46,495.023 1752.29,499.857 1742.5,502C 1745.28,503.812 1747.78,505.979 1750,508.5C 1760.36,523.863 1771.86,538.363 1784.5,552C 1787.73,554.575 1791.39,556.075 1795.5,556.5C 1795.67,557.822 1795.34,558.989 1794.5,560C 1778.2,564.614 1764.7,560.447 1754,547.5C 1744.88,534.716 1735.38,522.216 1725.5,510C 1720.09,506.313 1714.09,504.48 1707.5,504.5C 1707.33,519.17 1707.5,533.837 1708,548.5C 1710.24,552.704 1713.74,555.037 1718.5,555.5C 1718.5,556.833 1718.5,558.167 1718.5,559.5C 1704.5,559.5 1690.5,559.5 1676.5,559.5C 1676.5,558.167 1676.5,556.833 1676.5,555.5C 1681.46,555.381 1684.96,553.048 1687,548.5C 1687.67,515.5 1687.67,482.5 1687,449.5C 1684.98,444.987 1681.48,442.654 1676.5,442.5C 1676.5,441.167 1676.5,439.833 1676.5,438.5C 1690.01,438.829 1703.34,438.496 1716.5,437.5 Z M 1710.5,446.5 C 1716.84,446.334 1723.18,446.5 1729.5,447C 1747.4,451.284 1754.23,462.451 1750,480.5C 1745.4,490.411 1737.57,495.577 1726.5,496C 1720.15,496.524 1713.82,496.358 1707.5,495.5C 1707.5,479.5 1707.5,463.5 1707.5,447.5C 1708.79,447.737 1709.79,447.404 1710.5,446.5 Z"/></g>
<g><path style="opacity:0.987" fill="#171613" d="M 1978.5,437.5 C 2016.18,438.66 2053.85,438.827 2091.5,438C 2091.98,446.239 2091.98,454.739 2091.5,463.5C 2090.17,463.5 2088.83,463.5 2087.5,463.5C 2086.66,457.818 2083.66,453.651 2078.5,451C 2067.56,449.594 2056.56,449.094 2045.5,449.5C 2045.33,482.168 2045.5,514.835 2046,547.5C 2047.74,552.457 2051.24,555.124 2056.5,555.5C 2056.5,556.833 2056.5,558.167 2056.5,559.5C 2042.5,559.5 2028.5,559.5 2014.5,559.5C 2014.5,558.167 2014.5,556.833 2014.5,555.5C 2019.79,555.111 2023.29,552.445 2025,547.5C 2025.5,514.835 2025.67,482.168 2025.5,449.5C 2014.44,449.094 2003.44,449.594 1992.5,451C 1987.38,453.626 1984.38,457.793 1983.5,463.5C 1981.83,463.5 1980.17,463.5 1978.5,463.5C 1978.5,454.833 1978.5,446.167 1978.5,437.5 Z"/></g>
<g><path style="opacity:0.992" fill="#171613" d="M 2100.5,438.5 C 2113.85,438.167 2127.18,438.501 2140.5,439.5C 2140.71,440.086 2141.04,440.586 2141.5,441C 2139.76,442.62 2137.93,444.12 2136,445.5C 2135.33,447.833 2135.33,450.167 2136,452.5C 2144.42,467 2153.08,481.333 2162,495.5C 2171.71,479.793 2180.55,463.627 2188.5,447C 2187.63,444.632 2185.96,443.132 2183.5,442.5C 2182.57,441.311 2182.24,439.978 2182.5,438.5C 2192.83,438.5 2203.17,438.5 2213.5,438.5C 2213.66,439.873 2213.49,441.207 2213,442.5C 2207.32,445.336 2202.65,449.336 2199,454.5C 2188.27,471.572 2177.94,488.905 2168,506.5C 2167.33,520.833 2167.33,535.167 2168,549.5C 2170.1,553.135 2173.26,555.135 2177.5,555.5C 2177.5,556.833 2177.5,558.167 2177.5,559.5C 2163.83,559.5 2150.17,559.5 2136.5,559.5C 2136.22,555.962 2137.88,554.129 2141.5,554C 2143.38,552.457 2144.88,550.624 2146,548.5C 2146.67,534.5 2146.67,520.5 2146,506.5C 2134.67,488.5 2123.33,470.5 2112,452.5C 2109.28,448.116 2105.62,444.782 2101,442.5C 2100.51,441.207 2100.34,439.873 2100.5,438.5 Z"/></g>
<g><path style="opacity:0.981" fill="#171613" d="M 1350.5,438.5 C 1364.49,439.703 1378.49,439.703 1392.5,438.5C 1392.66,439.873 1392.49,441.207 1392,442.5C 1389.46,443.522 1386.96,444.688 1384.5,446C 1383.11,447.171 1382.27,448.671 1382,450.5C 1381.33,482.833 1381.33,515.167 1382,547.5C 1383.71,552.445 1387.21,555.111 1392.5,555.5C 1392.5,556.833 1392.5,558.167 1392.5,559.5C 1378.5,559.5 1364.5,559.5 1350.5,559.5C 1350.5,558.167 1350.5,556.833 1350.5,555.5C 1356.35,555.147 1359.85,552.147 1361,546.5C 1361.67,515.167 1361.67,483.833 1361,452.5C 1359.7,447.202 1356.37,443.869 1351,442.5C 1350.51,441.207 1350.34,439.873 1350.5,438.5 Z"/></g>
<g><path style="opacity:0.996" fill="#171613" d="M 1919.5,438.5 C 1933.83,439.833 1948.17,439.833 1962.5,438.5C 1962.76,439.978 1962.43,441.311 1961.5,442.5C 1957.13,443.261 1953.97,445.594 1952,449.5C 1951.33,482.833 1951.33,516.167 1952,549.5C 1954.38,553.358 1957.88,555.358 1962.5,555.5C 1962.5,556.833 1962.5,558.167 1962.5,559.5C 1948.17,559.5 1933.83,559.5 1919.5,559.5C 1919.5,558.167 1919.5,556.833 1919.5,555.5C 1924.16,555.421 1927.66,553.421 1930,549.5C 1930.67,516.167 1930.67,482.833 1930,449.5C 1927.58,445.95 1924.25,443.617 1920,442.5C 1919.51,441.207 1919.34,439.873 1919.5,438.5 Z"/></g>
<g><path style="opacity:1" fill="#eeeeee" d="M 227.5,491.5 C 230.889,492.691 234.222,494.191 237.5,496C 259.507,496.434 281.507,497.1 303.5,498C 306.993,499.478 307.326,501.478 304.5,504C 277.167,504.667 249.833,504.667 222.5,504C 221.446,502.612 221.28,501.112 222,499.5C 223.596,496.631 225.43,493.964 227.5,491.5 Z"/></g>
<g><path style="opacity:1" fill="#f6f6f6" d="M 397.5,492.5 C 402.613,493.603 406.28,496.603 408.5,501.5C 408.182,502.647 407.516,503.481 406.5,504C 380.822,504.213 355.156,504.713 329.5,505.5C 325.434,506.304 322.767,504.804 321.5,501C 322.858,499.311 324.525,497.978 326.5,497C 348.523,496.866 370.523,496.2 392.5,495C 394.491,494.626 396.158,493.793 397.5,492.5 Z"/></g>
<g><path style="opacity:1" fill="#f4f4f3" d="M 310.5,503.5 C 314.888,502.943 318.055,504.61 320,508.5C 320.667,512.167 320.667,515.833 320,519.5C 315.322,523.689 310.989,523.356 307,518.5C 305.559,512.772 306.726,507.772 310.5,503.5 Z"/></g>
<g><path style="opacity:0.992" fill="#3a1411" d="M 487.5,482.5 C 487.833,482.5 488.167,482.5 488.5,482.5C 452.416,533.418 409.083,577.251 358.5,614C 345.606,623.225 332.439,632.059 319,640.5C 309.243,636.375 300.076,631.375 291.5,625.5C 300.33,630.081 309.33,634.414 318.5,638.5C 385.01,597.661 441.344,545.661 487.5,482.5 Z"/></g>
<g><path style="opacity:0.102" fill="#191412" d="M 175.5,526.5 C 178.243,528.239 180.243,530.573 181.5,533.5C 178.757,531.761 176.757,529.427 175.5,526.5 Z"/></g>
<g><path style="opacity:0.102" fill="#191512" d="M 181.5,533.5 C 184.903,535.9 187.57,538.9 189.5,542.5C 186.097,540.1 183.43,537.1 181.5,533.5 Z"/></g>
<g><path style="opacity:0.102" fill="#1a1513" d="M 189.5,542.5 C 198.119,550.452 206.452,558.785 214.5,567.5C 205.188,560.188 196.854,551.854 189.5,542.5 Z"/></g>
<g><path style="opacity:0.62" fill="#231613" d="M 214.5,567.5 C 218.771,570.101 222.437,573.434 225.5,577.5C 221.229,574.899 217.563,571.566 214.5,567.5 Z"/></g>
<g><path style="opacity:0.729" fill="#201613" d="M 225.5,577.5 C 228.427,578.757 230.761,580.757 232.5,583.5C 229.573,582.243 227.239,580.243 225.5,577.5 Z"/></g>
<g><path style="opacity:0.729" fill="#221612" d="M 232.5,583.5 C 235.089,584.419 237.089,586.086 238.5,588.5C 235.911,587.581 233.911,585.914 232.5,583.5 Z"/></g>
<g><path style="opacity:0.729" fill="#181512" d="M 238.5,588.5 C 240.749,589.08 242.415,590.413 243.5,592.5C 241.251,591.92 239.585,590.587 238.5,588.5 Z"/></g>
<g><path style="opacity:0.729" fill="#171512" d="M 243.5,592.5 C 247.051,594.111 250.051,596.444 252.5,599.5C 248.949,597.889 245.949,595.556 243.5,592.5 Z"/></g>
<g><path style="opacity:0.835" fill="#191512" d="M 252.5,599.5 C 255.37,600.433 257.704,602.1 259.5,604.5C 256.63,603.567 254.296,601.9 252.5,599.5 Z"/></g>
<g><path style="opacity:0.835" fill="#191412" d="M 259.5,604.5 C 261.404,604.738 262.738,605.738 263.5,607.5C 261.596,607.262 260.262,606.262 259.5,604.5 Z"/></g>
<g><path style="opacity:0.835" fill="#181513" d="M 263.5,607.5 C 265.027,607.427 266.027,608.094 266.5,609.5C 264.973,609.573 263.973,608.906 263.5,607.5 Z"/></g>
<g><path style="opacity:0.729" fill="#171512" d="M 266.5,609.5 C 268.027,609.427 269.027,610.094 269.5,611.5C 267.973,611.573 266.973,610.906 266.5,609.5 Z"/></g>
<g><path style="opacity:0.835" fill="#171513" d="M 269.5,611.5 C 271.027,611.427 272.027,612.094 272.5,613.5C 270.973,613.573 269.973,612.906 269.5,611.5 Z"/></g>
<g><path style="opacity:0.835" fill="#171513" d="M 272.5,613.5 C 274.027,613.427 275.027,614.094 275.5,615.5C 273.973,615.573 272.973,614.906 272.5,613.5 Z"/></g>
<g><path style="opacity:0.835" fill="#181513" d="M 275.5,615.5 C 277.027,615.427 278.027,616.094 278.5,617.5C 276.973,617.573 275.973,616.906 275.5,615.5 Z"/></g>
<g><path style="opacity:0.727" fill="#181512" d="M 278.5,617.5 C 281.704,618.383 284.371,620.05 286.5,622.5C 283.296,621.617 280.629,619.95 278.5,617.5 Z"/></g>
<g><path style="opacity:0.727" fill="#181513" d="M 286.5,622.5 C 288.674,622.75 290.341,623.75 291.5,625.5C 289.326,625.25 287.659,624.25 286.5,622.5 Z"/></g>
</svg>
