<?xml version="1.0" encoding="UTF-8"?>
<!DOCTYPE svg PUBLIC "-//W3C//DTD SVG 1.1//EN" "http://www.w3.org/Graphics/SVG/1.1/DTD/svg11.dtd">
<svg xmlns="http://www.w3.org/2000/svg" version="1.1" width="3840px" height="2160px" style="shape-rendering:geometricPrecision; text-rendering:geometricPrecision; image-rendering:optimizeQuality; fill-rule:evenodd; clip-rule:evenodd" xmlns:xlink="http://www.w3.org/1999/xlink">
<g><path style="opacity:0.991" fill="#e7ac41" d="M 489.5,925.5 C 488.07,924.463 486.403,923.796 484.5,923.5C 468.456,917.363 451.956,912.696 435,909.5C 419.292,910.375 411.125,918.709 410.5,934.5C 414.143,952.609 423.476,967.109 438.5,978C 445.744,982.874 453.244,987.374 461,991.5C 485.928,1001.54 509.428,1014.04 531.5,1029C 540.058,1036.56 547.558,1045.06 554,1054.5C 566.837,1082.18 578.003,1110.51 587.5,1139.5C 587.167,1140.17 586.833,1140.83 586.5,1141.5C 575.229,1137.79 564.229,1134.29 553.5,1131C 547.001,1115.51 540.501,1100.01 534,1084.5C 531.117,1079.95 527.284,1076.45 522.5,1074C 517.122,1072.94 512.956,1074.77 510,1079.5C 508.576,1111.55 499.576,1141.21 483,1168.5C 481.295,1179.46 485.962,1184.79 497,1184.5C 497.853,1182.88 498.853,1182.54 500,1183.5C 501.067,1182.81 502.234,1182.31 503.5,1182C 517.294,1172.8 530.961,1163.47 544.5,1154C 547.167,1153.33 549.833,1153.33 552.5,1154C 563.057,1157.63 573.391,1160.97 583.5,1164C 593.065,1169.23 600.231,1176.73 605,1186.5C 615.068,1212.71 624.735,1239.04 634,1265.5C 643.667,1266.17 653.333,1266.83 663,1267.5C 663.5,1267 664,1266.5 664.5,1266C 658.327,1251.47 652.827,1236.64 648,1221.5C 642.765,1200.24 645.765,1180.24 657,1161.5C 673.401,1137.09 692.067,1114.42 713,1093.5C 722.677,1081.14 728.177,1067.14 729.5,1051.5C 728.68,1035.85 720.68,1030.02 705.5,1034C 696.167,1039.33 686.833,1044.67 677.5,1050C 661.655,1055.07 653.321,1049.24 652.5,1032.5C 653.453,1024.02 655.953,1016.02 660,1008.5C 663,1004.17 666,999.833 669,995.5C 683.333,979.167 697.667,962.833 712,946.5C 720.102,936.297 726.102,924.963 730,912.5C 733.72,899.556 731.22,888.056 722.5,878C 716.886,874.791 710.886,873.791 704.5,875C 696.619,877.607 689.286,881.274 682.5,886C 666.453,897.349 650.453,908.682 634.5,920C 622.369,924.349 614.202,920.516 610,908.5C 607.859,896.337 609.526,884.67 615,873.5C 619.083,866.332 623.416,859.332 628,852.5C 638.716,839.452 649.049,826.119 659,812.5C 663.808,805.814 664.974,798.647 662.5,791C 662.095,790.055 661.428,789.388 660.5,789C 660.833,788.667 661.167,788.333 661.5,788C 660.167,787 658.833,786 657.5,785C 657.833,784.667 658.167,784.333 658.5,784C 655.638,781.977 652.638,780.144 649.5,778.5C 648.914,778.709 648.414,779.043 648,779.5C 640.705,775.904 632.872,774.07 624.5,774C 612.258,773.179 600.091,773.346 588,774.5C 586.833,761.61 586,748.61 585.5,735.5C 585.393,732.6 585.727,729.6 586.5,726.5C 714.688,726.566 840.688,726.566 964.5,726.5C 966.047,727.768 967.047,729.435 967.5,731.5C 966.423,745.583 966.256,759.583 967,773.5C 959.301,774.217 951.634,775.217 944,776.5C 922.554,776.362 904.22,784.696 889,801.5C 880.416,812.324 873.083,823.991 867,836.5C 852.691,872.43 838.191,908.264 823.5,944C 823.833,944.333 824.167,944.667 824.5,945C 761.179,1107.41 697.845,1269.08 634.5,1430C 572.5,1430.67 510.5,1430.67 448.5,1430C 438.686,1407.94 430.019,1385.77 422.5,1363.5C 355.249,1194.63 288.749,1025.3 223,855.5C 216.133,838.765 207.966,822.765 198.5,807.5C 198.167,806.5 197.5,805.833 196.5,805.5C 183.312,787.757 165.979,777.59 144.5,775C 134.19,773.983 123.857,773.483 113.5,773.5C 113.5,757.833 113.5,742.167 113.5,726.5C 240.834,726.333 368.167,726.5 495.5,727C 496.303,742.678 496.636,757.844 496.5,772.5C 484.848,773.333 473.181,773.833 461.5,774C 451.694,773.733 443.027,776.066 435.5,781C 426.694,790.949 426.194,801.449 434,812.5C 442.089,823.924 451.589,834.091 462.5,843C 479.19,855.346 495.024,868.846 510,883.5C 515.639,890.802 519.972,898.802 523,907.5C 526.746,919.142 523.079,927.142 512,931.5C 509.333,931.5 506.667,931.5 504,931.5C 503.147,929.875 502.147,929.542 501,930.5C 496.913,929.094 493.08,927.427 489.5,925.5 Z M 449.5,1071.5 C 452.392,1072.39 455.059,1072.39 457.5,1071.5C 458.748,1072.04 459.915,1072.71 461,1073.5C 462,1073.17 463,1072.83 464,1072.5C 474.389,1075.22 485.222,1077.55 496.5,1079.5C 495.896,1109.47 487.729,1137.14 472,1162.5C 471.439,1163.02 470.772,1163.36 470,1163.5C 455.143,1159.53 440.977,1153.36 427.5,1145C 421.466,1139.44 417.633,1132.6 416,1124.5C 415.002,1118.02 414.169,1111.52 413.5,1105C 413.631,1102.75 414.131,1100.58 415,1098.5C 421.645,1088.86 429.978,1080.86 440,1074.5C 441.872,1073.93 443.705,1073.27 445.5,1072.5C 447.031,1073.42 448.365,1073.09 449.5,1071.5 Z"/></g>
<g><path style="opacity:0.973" fill="#010000" d="M 1463.5,726.5 C 1468.01,727.192 1472.68,727.526 1477.5,727.5C 1484.38,741.991 1489.71,756.824 1493.5,772C 1509.63,813.644 1524.96,855.31 1539.5,897C 1544.73,915.328 1551.23,933.495 1559,951.5C 1562.26,955.127 1566.26,957.46 1571,958.5C 1574.22,957.379 1577.72,957.379 1581.5,958.5C 1581.81,964.425 1581.47,970.259 1580.5,976C 1575.8,976.914 1571.3,976.414 1567,974.5C 1542.35,974.531 1518.02,974.531 1494,974.5C 1492.67,975.167 1491.33,975.833 1490,976.5C 1486.33,976.5 1482.67,976.5 1479,976.5C 1477.38,970.674 1477.05,964.674 1478,958.5C 1482.67,957.167 1487.33,957.167 1492,958.5C 1496.67,957.66 1499.5,954.993 1500.5,950.5C 1495.29,930.844 1488.95,911.177 1481.5,891.5C 1457.35,891.064 1433.18,890.731 1409,890.5C 1404.04,908.398 1398.37,926.398 1392,944.5C 1390.77,948.591 1391.61,952.091 1394.5,955C 1397.62,956.372 1400.78,957.538 1404,958.5C 1409,958.167 1414,957.833 1419,957.5C 1420.62,963.326 1420.95,969.326 1420,975.5C 1392.58,974.421 1364.58,974.421 1336,975.5C 1335.33,969.833 1335.33,964.167 1336,958.5C 1338.67,958.5 1341.33,958.5 1344,958.5C 1354.14,956.433 1361.47,950.767 1366,941.5C 1391.15,870.558 1415.98,799.558 1440.5,728.5C 1446.66,728.563 1452.99,728.396 1459.5,728C 1461.06,727.79 1462.39,727.29 1463.5,726.5 Z M 1444.5,781.5 C 1453.82,809.298 1463.15,836.798 1472.5,864C 1454.5,864.5 1436.5,864.667 1418.5,864.5C 1426.76,836.722 1435.43,809.056 1444.5,781.5 Z"/></g>
<g><path style="opacity:0.976" fill="#010100" d="M 3499.5,726.5 C 3508.47,727.725 3517.64,728.725 3527,729.5C 3585,729.5 3643,729.5 3701,729.5C 3709.11,728.718 3717.28,728.051 3725.5,727.5C 3724.05,745.797 3723.22,764.131 3723,782.5C 3722.08,784.632 3720.75,785.299 3719,784.5C 3714.93,786.4 3710.77,787.066 3706.5,786.5C 3705.87,783.298 3705.21,780.131 3704.5,777C 3705.01,766.638 3700.34,759.472 3690.5,755.5C 3688.84,756.223 3687.17,755.89 3685.5,754.5C 3669.5,754.5 3653.5,754.5 3637.5,754.5C 3636.21,818.5 3636.21,882.334 3637.5,946C 3640.72,953.223 3646.22,957.39 3654,958.5C 3659.43,958.306 3664.93,958.306 3670.5,958.5C 3671.66,964.137 3671.83,969.804 3671,975.5C 3668.76,976.137 3666.42,976.47 3664,976.5C 3660.76,976.693 3657.76,976.027 3655,974.5C 3627.27,974.599 3599.27,974.599 3571,974.5C 3569.67,975.167 3568.33,975.833 3567,976.5C 3562,976.5 3557,976.5 3552,976.5C 3550.88,973.522 3550.38,970.355 3550.5,967C 3550.83,964.167 3551.17,961.333 3551.5,958.5C 3557.74,957.36 3563.9,957.36 3570,958.5C 3579,957.5 3584,952.5 3585,943.5C 3585.67,880.5 3585.67,817.5 3585,754.5C 3568.01,755.195 3550.85,755.195 3533.5,754.5C 3531.54,754.875 3529.71,755.541 3528,756.5C 3524.33,756.31 3521,757.643 3518,760.5C 3514.57,768.207 3512.07,776.207 3510.5,784.5C 3509.76,785.287 3508.92,785.953 3508,786.5C 3504,786.5 3500,786.5 3496,786.5C 3494.7,785.91 3493.87,784.91 3493.5,783.5C 3497,764.653 3499,745.653 3499.5,726.5 Z"/></g>
<g><path style="opacity:0.974" fill="#010000" d="M 2413.5,890.5 C 2413.8,887.941 2413.47,885.607 2412.5,883.5C 2411.83,880.197 2411.17,876.863 2410.5,873.5C 2410.95,870.782 2410.28,868.115 2408.5,865.5C 2403.55,861.113 2397.72,858.78 2391,858.5C 2377.68,859.645 2364.18,859.812 2350.5,859C 2349.34,884.094 2349.17,909.261 2350,934.5C 2350.86,941.727 2354.69,946.56 2361.5,949C 2365.11,949.945 2368.78,950.612 2372.5,951C 2390.25,952.115 2407.92,951.448 2425.5,949C 2431.93,947.368 2437.1,943.868 2441,938.5C 2445.29,930.294 2448.79,921.794 2451.5,913C 2456.21,913.007 2460.88,913.673 2465.5,915C 2466.1,916.062 2466.43,917.228 2466.5,918.5C 2462.78,937.642 2459.45,956.809 2456.5,976C 2448.25,976.179 2440.75,976.345 2434,976.5C 2433,975.833 2432,975.167 2431,974.5C 2386.02,974.522 2341.35,974.522 2297,974.5C 2296,975.167 2295,975.833 2294,976.5C 2286.99,976.79 2279.82,976.457 2272.5,975.5C 2271.34,970.198 2271.17,964.864 2272,959.5C 2277,958.833 2282,958.167 2287,957.5C 2293.09,958.371 2297.09,955.371 2299,948.5C 2299.67,884.5 2299.67,820.5 2299,756.5C 2296.51,752.168 2293.01,749.168 2288.5,747.5C 2286.05,746.527 2283.39,746.194 2280.5,746.5C 2277.04,746.695 2273.38,746.695 2269.5,746.5C 2269.5,740.833 2269.5,735.167 2269.5,729.5C 2299.11,729.658 2328.44,729.991 2357.5,730.5C 2387.88,730.245 2418.21,729.578 2448.5,728.5C 2448.83,730.667 2449.17,732.833 2449.5,735C 2448.77,751.491 2448.27,767.991 2448,784.5C 2443.36,787.459 2438.19,789.126 2432.5,789.5C 2433.33,779.443 2431,770.276 2425.5,762C 2422.57,759.243 2419.24,757.076 2415.5,755.5C 2413.52,754.869 2411.36,754.869 2409,755.5C 2408.31,754.643 2407.48,753.977 2406.5,753.5C 2403.04,753.716 2399.54,754.049 2396,754.5C 2394.21,752.487 2392.88,752.487 2392,754.5C 2389.67,753.167 2387.33,753.167 2385,754.5C 2384.67,753.833 2384.33,753.167 2384,752.5C 2382.33,753.833 2380.67,753.833 2379,752.5C 2378.67,753.167 2378.33,753.833 2378,754.5C 2376.67,753.833 2375.33,753.167 2374,752.5C 2373.67,753.167 2373.33,753.833 2373,754.5C 2371.43,755.061 2370.1,754.394 2369,752.5C 2368.67,753.167 2368.33,753.833 2368,754.5C 2367.33,753.167 2366.67,753.167 2366,754.5C 2365.31,752.109 2364.31,752.109 2363,754.5C 2362.33,753.167 2361.67,753.167 2361,754.5C 2360.67,753.833 2360.33,753.167 2360,752.5C 2356.59,752.283 2353.09,752.616 2349.5,753.5C 2349.5,780.167 2349.5,806.833 2349.5,833.5C 2366.89,833.944 2384.22,833.444 2401.5,832C 2404.9,830.6 2407.74,828.433 2410,825.5C 2411.74,819.69 2413.24,813.857 2414.5,808C 2419.17,807.333 2423.83,807.333 2428.5,808C 2428.52,834.442 2428.52,860.942 2428.5,887.5C 2423.56,888.52 2418.72,889.854 2414,891.5C 2413.6,891.272 2413.43,890.938 2413.5,890.5 Z"/></g>
<g><path style="opacity:0.972" fill="#010000" d="M 1277.5,747.5 C 1275.05,746.527 1272.39,746.194 1269.5,746.5C 1265.38,746.66 1261.04,746.66 1256.5,746.5C 1256.5,740.833 1256.5,735.167 1256.5,729.5C 1283.17,730.738 1309.83,730.738 1336.5,729.5C 1336.67,734.844 1336.5,740.177 1336,745.5C 1333.87,747.065 1331.71,747.399 1329.5,746.5C 1320.53,747.626 1314.69,752.626 1312,761.5C 1284.76,827.149 1257.42,893.149 1230,959.5C 1227.04,966.37 1224.54,973.37 1222.5,980.5C 1216.57,980.192 1210.74,980.525 1205,981.5C 1177.97,918.319 1151.8,855.152 1126.5,792C 1121.98,782.788 1118.14,773.288 1115,763.5C 1112.26,755.585 1107.09,750.252 1099.5,747.5C 1097.39,746.532 1095.06,746.198 1092.5,746.5C 1089.38,746.72 1086.04,746.72 1082.5,746.5C 1082.5,740.833 1082.5,735.167 1082.5,729.5C 1119.44,730.798 1156.11,730.798 1192.5,729.5C 1192.5,735.167 1192.5,740.833 1192.5,746.5C 1183.94,745.782 1175.77,747.115 1168,750.5C 1167.33,752.5 1167.33,754.5 1168,756.5C 1187.97,806.35 1207.63,856.683 1227,907.5C 1244.95,861.418 1263.29,814.751 1282,767.5C 1283.97,762.307 1284.63,756.974 1284,751.5C 1282.36,749.339 1280.2,748.006 1277.5,747.5 Z"/></g>
<g><path style="opacity:0.975" fill="#010000" d="M 1653.5,845.5 C 1654.83,819.833 1654.83,794.167 1653.5,768.5C 1649.65,752.389 1639.82,745.056 1624,746.5C 1623,745.833 1622,745.167 1621,744.5C 1620.5,739.511 1620.33,734.511 1620.5,729.5C 1645.17,730.485 1669.84,730.652 1694.5,730C 1743.65,784.819 1792.48,839.985 1841,895.5C 1841.44,869.303 1841.6,843.47 1841.5,818C 1839.11,817.309 1839.11,816.309 1841.5,815C 1840.67,798.907 1840.17,782.741 1840,766.5C 1838.74,760.154 1835.58,754.987 1830.5,751C 1822.26,747.238 1813.59,745.738 1804.5,746.5C 1804.5,740.833 1804.5,735.167 1804.5,729.5C 1836.5,730.728 1868.5,730.728 1900.5,729.5C 1900.5,735.167 1900.5,740.833 1900.5,746.5C 1896.12,746.629 1891.95,746.629 1888,746.5C 1886.89,748.8 1885.39,749.133 1883.5,747.5C 1873.6,750.911 1868.44,757.911 1868,768.5C 1866.21,832.792 1865.54,896.458 1866,959.5C 1866.44,966.56 1867.28,973.56 1868.5,980.5C 1862.16,980.666 1855.82,980.5 1849.5,980C 1791.68,916.54 1734.51,853.04 1678,789.5C 1677.59,806.434 1677.42,823.267 1677.5,840C 1678.04,872.795 1678.87,905.629 1680,938.5C 1682,949.833 1688.67,956.5 1700,958.5C 1705.23,958.286 1710.73,958.286 1716.5,958.5C 1716.81,964.425 1716.47,970.259 1715.5,976C 1710.13,976.393 1704.96,976.559 1700,976.5C 1698.33,975.833 1696.67,975.167 1695,974.5C 1677.36,974.541 1659.69,974.541 1642,974.5C 1640.67,975.167 1639.33,975.833 1638,976.5C 1632.12,976.766 1626.12,976.433 1620,975.5C 1619.33,970.167 1619.33,964.833 1620,959.5C 1625.64,957.874 1630.64,957.54 1635,958.5C 1646.56,954.019 1652.06,945.685 1651.5,933.5C 1651.53,931.971 1652.2,930.804 1653.5,930C 1652.23,901.4 1652.23,873.233 1653.5,845.5 Z"/></g>
<g><path style="opacity:0.98" fill="#010100" d="M 1977.5,747.5 C 1975.05,746.527 1972.39,746.194 1969.5,746.5C 1966,746.547 1962.5,746.547 1959,746.5C 1958.5,740.843 1958.33,735.176 1958.5,729.5C 2002.83,730.383 2047.16,730.55 2091.5,730C 2123.4,732.085 2151.73,743.419 2176.5,764C 2206.29,795.174 2216.96,831.841 2208.5,874C 2209.02,874.561 2209.36,875.228 2209.5,876C 2193.8,933.735 2156.97,967.235 2099,976.5C 2090.33,976.5 2081.67,976.5 2073,976.5C 2072,975.833 2071,975.167 2070,974.5C 2039.79,974.699 2009.12,974.699 1978,974.5C 1972.63,976.299 1967.3,976.966 1962,976.5C 1960.88,973.522 1960.38,970.355 1960.5,967C 1960.83,964.167 1961.17,961.333 1961.5,958.5C 1966.4,957.36 1971.24,957.36 1976,958.5C 1980.89,957.601 1984.73,955.101 1987.5,951C 1986.54,949.853 1986.88,948.853 1988.5,948C 1987.67,883.904 1987.17,819.737 1987,755.5C 1985.43,750.75 1982.26,748.083 1977.5,747.5 Z M 2066.5,750.5 C 2067.48,751.141 2068.48,751.807 2069.5,752.5C 2074.62,751.41 2079.79,751.41 2085,752.5C 2091.14,754.513 2096.97,756.013 2102.5,757C 2129.07,767.293 2145.57,786.793 2152,815.5C 2158.31,841.945 2157.98,868.278 2151,894.5C 2134.51,937.686 2103.01,956.853 2056.5,952C 2044.63,950.458 2038.8,943.625 2039,931.5C 2038.33,871.833 2038.33,812.167 2039,752.5C 2040.15,753.458 2041.15,753.125 2042,751.5C 2045.11,751.648 2048.27,751.981 2051.5,752.5C 2056.63,751.879 2061.63,751.213 2066.5,750.5 Z"/></g>
<g><path style="opacity:0.98" fill="#010100" d="M 2529.5,729.5 C 2573.44,730.365 2617.11,730.532 2660.5,730C 2708.74,733.89 2730.24,759.724 2725,807.5C 2723.64,812.938 2721.97,818.272 2720,823.5C 2709.92,840.254 2696.08,852.754 2678.5,861C 2684.63,864.966 2689.97,869.8 2694.5,875.5C 2711.56,898.609 2728.4,921.942 2745,945.5C 2754.62,956.234 2765.28,960.234 2777,957.5C 2778.12,960.478 2778.62,963.645 2778.5,967C 2778.44,970.276 2777.78,973.276 2776.5,976C 2763.17,976.667 2749.83,976.667 2736.5,976C 2732.39,974.58 2728.55,974.413 2725,975.5C 2711.1,972.607 2700.1,965.274 2692,953.5C 2672.35,927.543 2653.69,900.876 2636,873.5C 2630.81,870.287 2625.14,868.953 2619,869.5C 2616.17,869.667 2613.33,869.833 2610.5,870C 2611.83,893.333 2611.83,916.667 2610.5,940C 2611.12,950.614 2616.62,956.78 2627,958.5C 2633,957.167 2639,957.167 2645,958.5C 2645.67,964.167 2645.67,969.833 2645,975.5C 2638.21,976.44 2631.54,976.774 2625,976.5C 2623.67,975.833 2622.33,975.167 2621,974.5C 2599.48,974.87 2577.14,974.87 2554,974.5C 2546.65,976.443 2539.15,976.943 2531.5,976C 2531.17,975.667 2530.83,975.333 2530.5,975C 2531.31,969.917 2531.81,964.75 2532,959.5C 2534,958.167 2536,958.167 2538,959.5C 2538.67,958.833 2539.33,958.167 2540,957.5C 2546.15,959.473 2552.15,957.473 2558,951.5C 2558.86,949.913 2559.53,948.246 2560,946.5C 2560.67,885.167 2560.67,823.833 2560,762.5C 2558.72,751.891 2552.72,746.558 2542,746.5C 2538.05,746.629 2533.88,746.629 2529.5,746.5C 2529.5,740.833 2529.5,735.167 2529.5,729.5 Z M 2614.5,750.5 C 2622.29,751.182 2630.12,751.849 2638,752.5C 2651.13,753.368 2661.3,759.868 2668.5,772C 2676.69,789.716 2676.35,808.216 2667.5,827.5C 2660.5,838.767 2650.33,845.433 2637,847.5C 2628.21,847.174 2619.88,847.174 2612,847.5C 2611.83,815.928 2611.33,784.428 2610.5,753C 2612.32,752.8 2613.65,751.966 2614.5,750.5 Z"/></g>
<g><path style="opacity:0.975" fill="#010000" d="M 2840.5,747.5 C 2838.05,746.527 2835.39,746.194 2832.5,746.5C 2830.1,746.437 2827.6,746.77 2825,747.5C 2824,746.833 2823,746.167 2822,745.5C 2820.65,740.092 2820.49,734.759 2821.5,729.5C 2865.11,730.389 2908.44,730.556 2951.5,730C 2959.95,730.69 2968.12,732.523 2976,735.5C 2995,740.498 3007.5,752.331 3013.5,771C 3019.48,799.397 3009.81,820.73 2984.5,835C 2980.29,837.186 2975.95,839.186 2971.5,841C 2987.68,843.091 3001.35,849.925 3012.5,861.5C 3030.09,880.338 3034.59,902.005 3026,926.5C 3016.2,948.302 3000.03,963.135 2977.5,971C 2959.92,976.626 2942.42,977.793 2925,974.5C 2896.8,974.709 2869.47,974.709 2843,974.5C 2841.67,975.167 2840.33,975.833 2839,976.5C 2833.7,976.566 2828.2,976.4 2822.5,976C 2820.78,970.414 2820.62,964.58 2822,958.5C 2826.67,957.167 2831.33,957.167 2836,958.5C 2843.05,958.146 2848.05,954.813 2851,948.5C 2851.2,944.247 2851.7,940.08 2852.5,936C 2851.88,903.024 2851.88,870.357 2852.5,838C 2851.83,833 2851.17,828 2850.5,823C 2851.17,822.333 2851.83,821.667 2852.5,821C 2852.5,803.667 2852.5,786.333 2852.5,769C 2851.86,763.836 2851.03,758.669 2850,753.5C 2847.53,750.351 2844.36,748.351 2840.5,747.5 Z M 2902.5,751.5 C 2913.62,751.575 2924.62,751.575 2935.5,751.5C 2942.43,753.343 2948.93,757.343 2955,763.5C 2964.81,781.919 2964.81,800.252 2955,818.5C 2947.91,826.297 2939.07,830.797 2928.5,832C 2919.84,832.5 2911.17,832.666 2902.5,832.5C 2902.47,805.322 2902.47,778.322 2902.5,751.5 Z M 2902.5,854.5 C 2918.54,853.32 2934.21,855.153 2949.5,860C 2955.34,862.511 2960.68,865.844 2965.5,870C 2965.17,870.333 2964.83,870.667 2964.5,871C 2970.34,874.971 2973.34,880.304 2973.5,887C 2977.57,896.463 2978.41,906.296 2976,916.5C 2969.32,940.85 2953.32,953.516 2928,954.5C 2922.44,954.034 2916.94,953.201 2911.5,952C 2906.37,949.934 2903.54,946.1 2903,940.5C 2902.5,911.835 2902.33,883.169 2902.5,854.5 Z"/></g>
<g><path style="opacity:0.976" fill="#010100" d="M 3197.5,746.5 C 3194.94,746.198 3192.61,746.532 3190.5,747.5C 3183.44,748.391 3179.61,752.391 3179,759.5C 3178.33,821.5 3178.33,883.5 3179,945.5C 3180.75,952.912 3185.41,957.245 3193,958.5C 3198,958.167 3203,957.833 3208,957.5C 3209.62,963.326 3209.95,969.326 3209,975.5C 3202.54,976.437 3196.21,976.77 3190,976.5C 3189,975.833 3188,975.167 3187,974.5C 3164.96,974.566 3142.96,974.566 3121,974.5C 3119.33,975.167 3117.67,975.833 3116,976.5C 3113.21,976.072 3110.21,976.072 3107,976.5C 3104.25,976.475 3101.58,976.141 3099,975.5C 3098.33,969.833 3098.33,964.167 3099,958.5C 3103.67,957.167 3108.33,957.167 3113,958.5C 3119.3,958.075 3124.14,955.242 3127.5,950C 3127.17,949.667 3126.83,949.333 3126.5,949C 3127.17,946.333 3127.83,943.667 3128.5,941C 3128.29,882.228 3128.29,823.062 3128.5,763.5C 3127.82,759.75 3126.82,756.084 3125.5,752.5C 3122.93,749.768 3119.93,747.768 3116.5,746.5C 3114.17,746.5 3111.83,746.5 3109.5,746.5C 3105.89,746.745 3102.22,746.745 3098.5,746.5C 3098.5,740.833 3098.5,735.167 3098.5,729.5C 3135.78,730.77 3172.78,730.77 3209.5,729.5C 3209.67,734.844 3209.5,740.177 3209,745.5C 3205.67,746.167 3202.33,746.833 3199,747.5C 3198.62,746.944 3198.12,746.611 3197.5,746.5 Z"/></g>
<g><path style="opacity:0.979" fill="#020100" d="M 3384.5,746.5 C 3381.94,746.198 3379.61,746.532 3377.5,747.5C 3376.06,748.725 3374.4,749.725 3372.5,750.5C 3371.75,751.376 3371.25,752.376 3371,753.5C 3370.01,816.916 3370.34,880.249 3372,943.5C 3376.72,948.478 3382.55,950.978 3389.5,951C 3405.66,952.225 3421.66,951.225 3437.5,948C 3445.39,945.111 3452.22,940.611 3458,934.5C 3461.98,927.536 3465.15,920.203 3467.5,912.5C 3472.79,911.505 3478.13,911.172 3483.5,911.5C 3480.63,933.07 3476.96,954.736 3472.5,976.5C 3462.79,976.447 3453.29,976.447 3444,976.5C 3442,975.833 3440,975.167 3438,974.5C 3399.45,974.63 3361.45,974.63 3324,974.5C 3322.67,975.167 3321.33,975.833 3320,976.5C 3309.79,976.796 3299.46,976.463 3289,975.5C 3288.33,969.833 3288.33,964.167 3289,958.5C 3293.67,957.167 3298.33,957.167 3303,958.5C 3311.44,957.399 3316.77,952.732 3319,944.5C 3319.67,882.167 3319.67,819.833 3319,757.5C 3317.24,751.844 3313.41,748.511 3307.5,747.5C 3305.05,746.527 3302.39,746.194 3299.5,746.5C 3295.83,746.5 3292.17,746.5 3288.5,746.5C 3288.5,740.833 3288.5,735.167 3288.5,729.5C 3326.17,730.802 3363.83,730.802 3401.5,729.5C 3401.5,735.167 3401.5,740.833 3401.5,746.5C 3395.62,746.617 3389.96,746.617 3384.5,746.5 Z"/></g>
<g><path style="opacity:0.071" fill="#382a0f" d="M 1092.5,746.5 C 1095.06,746.198 1097.39,746.532 1099.5,747.5C 1098.18,747.33 1097.01,747.663 1096,748.5C 1094.7,747.915 1093.53,747.249 1092.5,746.5 Z"/></g>
<g><path style="opacity:0.071" fill="#382a0f" d="M 1269.5,746.5 C 1272.39,746.194 1275.05,746.527 1277.5,747.5C 1275.86,747.286 1274.36,747.62 1273,748.5C 1271.7,747.915 1270.53,747.249 1269.5,746.5 Z"/></g>
<g><path style="opacity:0.071" fill="#382a0f" d="M 1969.5,746.5 C 1972.39,746.194 1975.05,746.527 1977.5,747.5C 1975.66,748.102 1973.83,748.435 1972,748.5C 1971.01,747.934 1970.17,747.267 1969.5,746.5 Z"/></g>
<g><path style="opacity:0.071" fill="#382a0f" d="M 2280.5,746.5 C 2283.39,746.194 2286.05,746.527 2288.5,747.5C 2286.66,748.102 2284.83,748.435 2283,748.5C 2282.01,747.934 2281.17,747.267 2280.5,746.5 Z"/></g>
<g><path style="opacity:0.071" fill="#382a0f" d="M 2832.5,746.5 C 2835.39,746.194 2838.05,746.527 2840.5,747.5C 2838.86,747.286 2837.36,747.62 2836,748.5C 2834.7,747.915 2833.53,747.249 2832.5,746.5 Z"/></g>
<g><path style="opacity:0.071" fill="#382a0f" d="M 3109.5,746.5 C 3111.83,746.5 3114.17,746.5 3116.5,746.5C 3116.22,747.289 3115.72,747.956 3115,748.5C 3114,747.167 3113,747.167 3112,748.5C 3111.01,747.934 3110.17,747.267 3109.5,746.5 Z"/></g>
<g><path style="opacity:0.071" fill="#382a0f" d="M 3190.5,747.5 C 3192.61,746.532 3194.94,746.198 3197.5,746.5C 3195.26,747.982 3192.93,748.315 3190.5,747.5 Z"/></g>
<g><path style="opacity:0.071" fill="#382a0f" d="M 3299.5,746.5 C 3302.39,746.194 3305.05,746.527 3307.5,747.5C 3305.86,747.286 3304.36,747.62 3303,748.5C 3301.7,747.915 3300.53,747.249 3299.5,746.5 Z"/></g>
<g><path style="opacity:0.071" fill="#382a0f" d="M 3377.5,747.5 C 3379.61,746.532 3381.94,746.198 3384.5,746.5C 3384.22,747.289 3383.72,747.956 3383,748.5C 3381.43,748.33 3379.6,747.997 3377.5,747.5 Z"/></g>
<g><path style="opacity:0.071" fill="#382a0f" d="M 1653.5,768.5 C 1654.83,794.167 1654.83,819.833 1653.5,845.5C 1653.29,820.154 1653.29,794.488 1653.5,768.5 Z"/></g>
<g><path style="opacity:0.071" fill="#382a0f" d="M 196.5,805.5 C 197.5,805.833 198.167,806.5 198.5,807.5C 197.167,807.5 196.5,806.833 196.5,805.5 Z"/></g>
<g><path style="opacity:0.071" fill="#382a0f" d="M 2412.5,883.5 C 2413.47,885.607 2413.8,887.941 2413.5,890.5C 2412.71,890.217 2412.04,889.717 2411.5,889C 2412.41,887.301 2412.74,885.467 2412.5,883.5 Z"/></g>
<g><path style="opacity:0.071" fill="#382a0f" d="M 484.5,923.5 C 486.403,923.796 488.07,924.463 489.5,925.5C 487.302,925.88 485.635,925.213 484.5,923.5 Z"/></g>
<g><path style="opacity:0.96" fill="#010000" d="M 3537.5,1178.5 C 3540.3,1179.71 3542.46,1181.71 3544,1184.5C 3567.73,1219.23 3591.06,1254.23 3614,1289.5C 3639.62,1253.09 3665.12,1216.59 3690.5,1180C 3699.52,1181.92 3708.02,1185.42 3716,1190.5C 3716.42,1192.79 3715.75,1194.79 3714,1196.5C 3710.67,1200.5 3707.33,1204.5 3704,1208.5C 3679.22,1243.76 3654.22,1278.76 3629,1313.5C 3628.73,1315.1 3628.23,1316.6 3627.5,1318C 3627.94,1319.53 3628.28,1321.03 3628.5,1322.5C 3627.84,1357.8 3627.17,1393.13 3626.5,1428.5C 3625.83,1428.83 3625.17,1429.17 3624.5,1429.5C 3616.32,1429.57 3607.66,1429.23 3598.5,1428.5C 3598.31,1391.67 3598.14,1354.34 3598,1316.5C 3572,1277.84 3546,1239.17 3520,1200.5C 3517.76,1198.35 3515.76,1196.02 3514,1193.5C 3513.25,1192.36 3513.42,1191.36 3514.5,1190.5C 3522.1,1186.2 3529.77,1182.2 3537.5,1178.5 Z"/></g>
<g><path style="opacity:0.966" fill="#010000" d="M 1471.5,1179.5 C 1476.8,1185.4 1481.63,1191.74 1486,1198.5C 1513.73,1239.23 1541.06,1280.23 1568,1321.5C 1582.74,1341.98 1596.74,1362.98 1610,1384.5C 1609.76,1317.76 1610.43,1250.76 1612,1183.5C 1621,1182.17 1630,1182.17 1639,1183.5C 1638.46,1263.76 1637.8,1343.76 1637,1423.5C 1627.89,1427.09 1618.56,1430.09 1609,1432.5C 1602.46,1424.23 1596.29,1416.23 1590.5,1408.5C 1563.76,1368.71 1537.26,1328.71 1511,1288.5C 1496.89,1269.05 1483.56,1249.05 1471,1228.5C 1470.73,1295.61 1470.07,1362.27 1469,1428.5C 1467.52,1430.78 1465.85,1430.78 1464,1428.5C 1462.15,1430.78 1460.48,1430.78 1459,1428.5C 1453.23,1429.06 1447.56,1429.06 1442,1428.5C 1442.35,1348 1442.85,1267.66 1443.5,1187.5C 1453.24,1184.9 1462.57,1182.24 1471.5,1179.5 Z"/></g>
<g><path style="opacity:0.967" fill="#010100" d="M 1953.5,1179.5 C 1955.45,1179.23 1956.95,1179.89 1958,1181.5C 1984.52,1251.13 2010.86,1320.47 2037,1389.5C 2064.29,1319.61 2091.96,1249.94 2120,1180.5C 2123.46,1179.86 2126.79,1180.52 2130,1182.5C 2130.33,1182.17 2130.67,1181.83 2131,1181.5C 2136,1183.5 2141,1185.5 2146,1187.5C 2146.67,1189.17 2146.67,1190.83 2146,1192.5C 2113.53,1270.76 2081.36,1349.09 2049.5,1427.5C 2048.01,1428.24 2046.51,1428.91 2045,1429.5C 2039,1429.5 2033,1429.5 2027,1429.5C 2023.64,1429.17 2021.31,1427.5 2020,1424.5C 1990.29,1347.05 1959.96,1269.72 1929,1192.5C 1928.13,1189.96 1928.8,1187.96 1931,1186.5C 1939.1,1183.62 1946.6,1181.28 1953.5,1179.5 Z"/></g>
<g><path style="opacity:0.961" fill="#010000" d="M 2880.5,1179.5 C 2891.45,1179.2 2902.28,1179.87 2913,1181.5C 2914.27,1181.38 2915.6,1181.05 2917,1180.5C 2930.64,1183 2943.81,1187.66 2956.5,1194.5C 2956.83,1195.17 2957.17,1195.83 2957.5,1196.5C 2953.39,1204.4 2948.56,1211.73 2943,1218.5C 2924.28,1207.86 2904.45,1203.36 2883.5,1205C 2855.99,1210.92 2844.49,1228.09 2849,1256.5C 2851.4,1262.13 2854.9,1266.96 2859.5,1271C 2875.62,1281.39 2892.62,1290.23 2910.5,1297.5C 2916.83,1301.67 2923.17,1305.83 2929.5,1310C 2949.75,1326.7 2958.25,1348.2 2955,1374.5C 2951.54,1399.62 2938.04,1416.79 2914.5,1426C 2906.02,1428.64 2897.85,1431.14 2890,1433.5C 2880.67,1432.17 2871.33,1432.17 2862,1433.5C 2860.16,1431.65 2858.16,1431.32 2856,1432.5C 2846.27,1430.15 2836.61,1427.48 2827,1424.5C 2821.42,1423.49 2815.92,1421.33 2810.5,1418C 2808.79,1417.22 2807.79,1415.89 2807.5,1414C 2811.78,1406.58 2815.78,1399.08 2819.5,1391.5C 2831.57,1398.02 2844.4,1402.69 2858,1405.5C 2859.65,1404.1 2860.98,1404.44 2862,1406.5C 2870.68,1406.82 2879.68,1406.82 2889,1406.5C 2915,1399.95 2926.83,1383.95 2924.5,1358.5C 2924.34,1356.16 2923.34,1354.33 2921.5,1353C 2921.96,1352.59 2922.29,1352.09 2922.5,1351.5C 2917.81,1342.27 2910.81,1334.44 2901.5,1328C 2889.94,1321.38 2878.28,1315.72 2866.5,1311C 2857.16,1306 2848.16,1300.5 2839.5,1294.5C 2817.41,1274.13 2810.91,1249.47 2820,1220.5C 2832.81,1195.07 2852.98,1181.4 2880.5,1179.5 Z"/></g>
<g><path style="opacity:0.973" fill="#010100" d="M 2644.5,1382.5 C 2634.84,1368.34 2625,1354.34 2615,1340.5C 2608.88,1330.21 2600.05,1323.55 2588.5,1320.5C 2580.92,1321 2573.59,1321 2566.5,1320.5C 2566.46,1352.42 2566.46,1384.26 2566.5,1416C 2565.86,1420.12 2565.19,1424.29 2564.5,1428.5C 2562.63,1429.77 2560.8,1429.77 2559,1428.5C 2558.33,1429.17 2557.67,1429.83 2557,1430.5C 2556.33,1429.17 2555.67,1429.17 2555,1430.5C 2554.67,1429.83 2554.33,1429.17 2554,1428.5C 2549.11,1428.94 2544.44,1428.94 2540,1428.5C 2539.31,1430.89 2538.31,1430.89 2537,1428.5C 2537.39,1346.07 2537.89,1264.07 2538.5,1182.5C 2547.77,1181.95 2556.27,1181.95 2564,1182.5C 2565,1181.83 2566,1181.17 2567,1180.5C 2584.86,1180.95 2603.86,1180.95 2624,1180.5C 2626.14,1182.34 2628.31,1182.67 2630.5,1181.5C 2648.67,1184.5 2663.83,1192.83 2676,1206.5C 2697.3,1251.95 2685.8,1286.45 2641.5,1310C 2636.99,1311.84 2632.32,1313.17 2627.5,1314C 2630.78,1315.56 2633.62,1317.73 2636,1320.5C 2659.85,1353.68 2683.68,1386.84 2707.5,1420C 2707.36,1420.77 2707.02,1421.44 2706.5,1422C 2698.12,1425.26 2689.62,1429.09 2681,1433.5C 2677.04,1426.08 2671.87,1419.08 2665.5,1412.5C 2658.97,1402.07 2651.97,1392.07 2644.5,1382.5 Z M 2580.5,1205.5 C 2592.5,1205.33 2604.5,1205.5 2616.5,1206C 2628.05,1206.67 2638.55,1211.17 2648,1219.5C 2657.88,1234.06 2659.88,1249.39 2654,1265.5C 2649.1,1277.4 2640.6,1285.56 2628.5,1290C 2623.42,1291.81 2618.58,1293.31 2614,1294.5C 2598.65,1294.42 2582.82,1294.42 2566.5,1294.5C 2566.07,1265.14 2566.57,1235.8 2568,1206.5C 2571,1206.83 2574,1207.17 2577,1207.5C 2578.3,1206.92 2579.47,1206.25 2580.5,1205.5 Z"/></g>
<g><path style="opacity:0.96" fill="#010000" d="M 1122.5,1182.5 C 1131.75,1182.18 1140.92,1182.52 1150,1183.5C 1149.7,1240.83 1149.7,1298.16 1150,1355.5C 1152.1,1382.89 1166.1,1399.89 1192,1406.5C 1194.01,1405.28 1196.01,1405.62 1198,1407.5C 1207.39,1406.44 1216.72,1406.44 1226,1407.5C 1227.55,1405.85 1229.22,1405.52 1231,1406.5C 1252.83,1401 1266.5,1387 1272,1364.5C 1273.93,1354.4 1274.77,1344.4 1274.5,1334.5C 1275.37,1283.99 1276.2,1233.65 1277,1183.5C 1286,1182.17 1295,1182.17 1304,1183.5C 1304.57,1239.85 1303.9,1296.19 1302,1352.5C 1298.03,1400.11 1273.19,1426.61 1227.5,1432C 1201.46,1435.49 1176.46,1431.49 1152.5,1420C 1143.36,1413.24 1136.36,1405.24 1131.5,1396C 1123.76,1381.19 1119.93,1365.02 1120,1347.5C 1119.79,1302.7 1120.29,1257.53 1121.5,1212C 1120.98,1211.44 1120.64,1210.77 1120.5,1210C 1121.15,1200.79 1121.82,1191.62 1122.5,1182.5 Z"/></g>
<g><path style="opacity:0.984" fill="#000000" d="M 1783.5,1182.5 C 1792.83,1182.5 1802.17,1182.5 1811.5,1182.5C 1811.31,1241.57 1810.64,1300.73 1809.5,1360C 1809.94,1361.53 1810.28,1363.03 1810.5,1364.5C 1809.84,1385.8 1809.18,1407.13 1808.5,1428.5C 1807.91,1428.71 1807.41,1429.04 1807,1429.5C 1798.1,1429.8 1789.77,1429.47 1782,1428.5C 1781.83,1393.93 1781.33,1359.43 1780.5,1325C 1781.13,1324.25 1781.63,1323.42 1782,1322.5C 1782.36,1275.83 1782.86,1229.16 1783.5,1182.5 Z"/></g>
<g><path style="opacity:0.956" fill="#010000" d="M 2263.5,1182.5 C 2307.17,1182.5 2350.83,1182.5 2394.5,1182.5C 2394.5,1191.5 2394.5,1200.5 2394.5,1209.5C 2360.17,1209.5 2325.83,1209.5 2291.5,1209.5C 2291.17,1236.17 2290.83,1262.83 2290.5,1289.5C 2324.83,1289.5 2359.17,1289.5 2393.5,1289.5C 2393.97,1298.67 2393.47,1307.67 2392,1316.5C 2358.46,1316.04 2324.96,1315.71 2291.5,1315.5C 2290.04,1344.48 2289.38,1373.48 2289.5,1402.5C 2324.41,1402.17 2359.24,1402.5 2394,1403.5C 2394.67,1411.83 2394.67,1420.17 2394,1428.5C 2393.59,1428.96 2393.09,1429.29 2392.5,1429.5C 2380.73,1429.72 2369.23,1429.39 2358,1428.5C 2356.9,1430.39 2355.57,1431.06 2354,1430.5C 2353.67,1429.83 2353.33,1429.17 2353,1428.5C 2348.11,1428.94 2343.44,1428.94 2339,1428.5C 2338.67,1429.17 2338.33,1429.83 2338,1430.5C 2336.67,1429.83 2335.33,1429.17 2334,1428.5C 2319.32,1429.66 2304.98,1429.66 2291,1428.5C 2289.9,1430.39 2288.57,1431.06 2287,1430.5C 2286.67,1429.83 2286.33,1429.17 2286,1428.5C 2281.11,1428.94 2276.44,1428.94 2272,1428.5C 2271.67,1429.17 2271.33,1429.83 2271,1430.5C 2266.79,1430.17 2262.62,1429 2258.5,1427C 2258.77,1423.15 2259.44,1419.15 2260.5,1415C 2260.49,1378.27 2260.49,1341.27 2260.5,1304C 2261.32,1266.19 2261.82,1228.35 2262,1190.5C 2262.27,1187.75 2262.77,1185.08 2263.5,1182.5 Z"/></g>
<g><path style="opacity:0.98" fill="#030200" d="M 3096.5,1182.5 C 3105.93,1181.88 3115.1,1182.54 3124,1184.5C 3124.46,1221.03 3124.62,1257.2 3124.5,1293C 3123.83,1327.8 3123.16,1362.64 3122.5,1397.5C 3122.72,1398.97 3123.06,1400.47 3123.5,1402C 3122.68,1410.76 3122.18,1419.59 3122,1428.5C 3120.33,1429.83 3118.67,1429.83 3117,1428.5C 3116.33,1429.17 3115.67,1429.83 3115,1430.5C 3114.33,1429.17 3113.67,1429.17 3113,1430.5C 3112.67,1429.83 3112.33,1429.17 3112,1428.5C 3107.11,1428.94 3102.44,1428.94 3098,1428.5C 3096.68,1429.88 3095.34,1430.21 3094,1429.5C 3093.87,1347.33 3094.7,1265 3096.5,1182.5 Z"/></g>
<g><path style="opacity:0.972" fill="#020100" d="M 3253.5,1182.5 C 3312.5,1182.33 3371.5,1182.5 3430.5,1183C 3431.48,1192.08 3431.82,1201.25 3431.5,1210.5C 3406.5,1210.5 3381.5,1210.5 3356.5,1210.5C 3355.92,1254.63 3355.25,1299.13 3354.5,1344C 3355.08,1344.89 3355.41,1345.89 3355.5,1347C 3354.85,1374.15 3354.19,1401.32 3353.5,1428.5C 3352.91,1428.71 3352.41,1429.04 3352,1429.5C 3344.18,1428.91 3336.18,1428.91 3328,1429.5C 3326.49,1427.98 3325.66,1426.15 3325.5,1424C 3326.82,1384.28 3326.82,1344.61 3325.5,1305C 3326.17,1304 3326.83,1303 3327.5,1302C 3326.17,1271.67 3326.17,1241.33 3327.5,1211C 3302.5,1210.5 3277.5,1210.33 3252.5,1210.5C 3252.19,1201.08 3252.53,1191.75 3253.5,1182.5 Z"/></g>
<g><path style="opacity:0.071" fill="#382a0f" d="M 2644.5,1382.5 C 2643.83,1383.17 2643.83,1383.17 2644.5,1382.5 Z"/></g>
</svg>
