<?xml version="1.0" encoding="UTF-8"?> <svg xmlns="http://www.w3.org/2000/svg" width="561" height="250" viewBox="0 0 561 250" fill="none"><g clip-path="url(#clip0_350_3220)"><rect x="0.138672" width="560" height="250" rx="25" fill="#F8F9FA"></rect><g opacity="0.05"><path fill-rule="evenodd" clip-rule="evenodd" d="M556.199 72.5892L535.306 78.201C534.835 78.3266 534.5 78.6745 534.385 79.1455C534.273 79.619 534.417 80.0821 534.778 80.4065L555.872 99.369C556.223 99.6856 556.699 99.7588 557.131 99.5678C557.562 99.3768 557.827 98.9713 557.827 98.4978L557.827 73.8345C557.827 73.4185 557.649 73.0627 557.322 72.8116C556.992 72.5604 556.602 72.4819 556.202 72.5892L556.199 72.5892Z" fill="#046824"></path><path fill-rule="evenodd" clip-rule="evenodd" d="M529.16 48.6561L508.267 54.2679C507.796 54.3935 507.461 54.7414 507.346 55.2124C507.234 55.6859 507.377 56.149 507.739 56.4734L528.833 75.4359C529.184 75.7525 529.66 75.8257 530.092 75.6347C530.523 75.4437 530.788 75.0382 530.788 74.5647L530.788 49.9014C530.788 49.4854 530.61 49.1296 530.283 48.8784C529.953 48.6273 529.563 48.5488 529.163 48.6561L529.16 48.6561Z" fill="#046824"></path><path fill-rule="evenodd" clip-rule="evenodd" d="M556.199 40.0857L535.306 45.6976C534.835 45.8232 534.5 46.1711 534.385 46.642C534.273 47.1156 534.417 47.5787 534.778 47.9031L555.872 66.8656C556.223 67.1821 556.699 67.2554 557.131 67.0644C557.562 66.8734 557.827 66.4679 557.827 65.9944L557.827 41.3311C557.827 40.9151 557.649 40.5593 557.322 40.3081C556.992 40.057 556.602 39.9785 556.202 40.0857L556.199 40.0857Z" fill="#046824"></path><path fill-rule="evenodd" clip-rule="evenodd" d="M501.902 152.664L481.009 158.276C480.538 158.402 480.203 158.75 480.088 159.221C479.976 159.694 480.12 160.157 480.481 160.482L501.575 179.444C501.926 179.761 502.402 179.834 502.834 179.643C503.266 179.452 503.53 179.047 503.53 178.573L503.53 153.91C503.53 153.494 503.352 153.138 503.025 152.887C502.695 152.636 502.305 152.557 501.905 152.664L501.902 152.664Z" fill="#046824"></path><path fill-rule="evenodd" clip-rule="evenodd" d="M474.863 128.732L453.97 134.344C453.499 134.47 453.164 134.818 453.049 135.289C452.937 135.762 453.081 136.225 453.442 136.55L474.536 155.512C474.887 155.829 475.363 155.902 475.795 155.711C476.226 155.52 476.491 155.115 476.491 154.641L476.491 129.978C476.491 129.562 476.313 129.206 475.986 128.955C475.656 128.704 475.266 128.625 474.866 128.732L474.863 128.732Z" fill="#046824"></path><path fill-rule="evenodd" clip-rule="evenodd" d="M501.902 120.161L481.009 125.773C480.538 125.898 480.203 126.246 480.088 126.717C479.976 127.191 480.12 127.654 480.481 127.978L501.575 146.941C501.926 147.257 502.402 147.33 502.834 147.139C503.266 146.948 503.53 146.543 503.53 146.069L503.53 121.406C503.53 120.99 503.352 120.634 503.025 120.383C502.695 120.132 502.305 120.053 501.905 120.161L501.902 120.161Z" fill="#046824"></path><path fill-rule="evenodd" clip-rule="evenodd" d="M447.832 168.917L426.939 174.529C426.468 174.654 426.133 175.002 426.018 175.473C425.905 175.947 426.049 176.41 426.41 176.734L447.505 195.697C447.856 196.013 448.332 196.086 448.764 195.895C449.195 195.704 449.459 195.299 449.459 194.825L449.459 170.162C449.459 169.746 449.282 169.39 448.955 169.139C448.625 168.888 448.235 168.81 447.835 168.917L447.832 168.917Z" fill="#046824"></path><path fill-rule="evenodd" clip-rule="evenodd" d="M420.793 144.98L399.9 150.592C399.429 150.718 399.094 151.066 398.979 151.537C398.866 152.01 399.01 152.473 399.371 152.798L420.466 171.76C420.817 172.077 421.293 172.15 421.724 171.959C422.156 171.768 422.42 171.362 422.42 170.889L422.42 146.226C422.42 145.81 422.243 145.454 421.915 145.203C421.586 144.952 421.196 144.873 420.796 144.98L420.793 144.98Z" fill="#046824"></path><path fill-rule="evenodd" clip-rule="evenodd" d="M474.863 160.347L453.97 165.958C453.499 166.084 453.164 166.432 453.049 166.903C452.937 167.376 453.081 167.84 453.442 168.164L474.536 187.126C474.887 187.443 475.363 187.516 475.795 187.325C476.226 187.134 476.491 186.729 476.491 186.255L476.491 161.592C476.491 161.176 476.313 160.82 475.986 160.569C475.656 160.318 475.266 160.239 474.866 160.347L474.863 160.347Z" fill="#046824"></path><path fill-rule="evenodd" clip-rule="evenodd" d="M447.832 136.412L426.939 142.024C426.468 142.15 426.133 142.498 426.018 142.969C425.905 143.442 426.049 143.905 426.41 144.23L447.505 163.192C447.856 163.509 448.332 163.582 448.764 163.391C449.195 163.2 449.459 162.795 449.459 162.321L449.459 137.658C449.459 137.242 449.282 136.886 448.955 136.635C448.625 136.384 448.235 136.305 447.835 136.412L447.832 136.412Z" fill="#046824"></path><path fill-rule="evenodd" clip-rule="evenodd" d="M501.902 89.1375L481.009 94.7493C480.538 94.8749 480.203 95.2229 480.088 95.6938C479.976 96.1673 480.12 96.6304 480.481 96.9548L501.575 115.917C501.926 116.234 502.402 116.307 502.834 116.116C503.266 115.925 503.53 115.52 503.53 115.046L503.53 90.3828C503.53 89.9669 503.352 89.6111 503.025 89.3599C502.695 89.1087 502.305 89.0302 501.905 89.1375L501.902 89.1375Z" fill="#046824"></path><path fill-rule="evenodd" clip-rule="evenodd" d="M474.863 65.2009L453.97 70.8127C453.499 70.9383 453.164 71.2862 453.049 71.7572C452.937 72.2307 453.081 72.6938 453.442 73.0182L474.536 91.9807C474.887 92.2972 475.363 92.3705 475.795 92.1795C476.226 91.9885 476.491 91.583 476.491 91.1095L476.491 66.4462C476.491 66.0302 476.313 65.6744 475.986 65.4232C475.656 65.1721 475.266 65.0936 474.866 65.2009L474.863 65.2009Z" fill="#046824"></path><path fill-rule="evenodd" clip-rule="evenodd" d="M501.902 56.6329L481.009 62.2447C480.538 62.3703 480.203 62.7182 480.088 63.1892C479.976 63.6627 480.12 64.1258 480.481 64.4502L501.575 83.4127C501.926 83.7293 502.402 83.8025 502.834 83.6115C503.266 83.4205 503.53 83.015 503.53 82.5415L503.53 57.8782C503.53 57.4622 503.352 57.1064 503.025 56.8553C502.695 56.6041 502.305 56.5256 501.905 56.6329L501.902 56.6329Z" fill="#046824"></path><path fill-rule="evenodd" clip-rule="evenodd" d="M474.863 96.8182L453.97 102.43C453.499 102.556 453.164 102.904 453.049 103.374C452.937 103.848 453.081 104.311 453.442 104.635L474.536 123.598C474.887 123.915 475.363 123.988 475.795 123.797C476.226 123.606 476.491 123.2 476.491 122.727L476.491 98.0635C476.491 97.6475 476.313 97.2917 475.986 97.0406C475.656 96.7894 475.266 96.7109 474.866 96.8182L474.863 96.8182Z" fill="#046824"></path><path fill-rule="evenodd" clip-rule="evenodd" d="M447.832 72.8851L426.939 78.4969C426.468 78.6225 426.133 78.9704 426.018 79.4414C425.905 79.9149 426.049 80.378 426.41 80.7024L447.505 99.6649C447.856 99.9815 448.332 100.055 448.764 99.8637C449.195 99.6727 449.459 99.2672 449.459 98.7937L449.459 74.1304C449.459 73.7144 449.282 73.3586 448.955 73.1074C448.625 72.8563 448.235 72.7778 447.835 72.8851L447.832 72.8851Z" fill="#046824"></path><path fill-rule="evenodd" clip-rule="evenodd" d="M501.902 25.6072L481.009 31.2191C480.538 31.3446 480.203 31.6926 480.088 32.1635C479.976 32.6371 480.12 33.1001 480.481 33.4246L501.575 52.3871C501.926 52.7036 502.402 52.7769 502.834 52.5859C503.266 52.3949 503.53 51.9894 503.53 51.5158L503.53 26.8526C503.53 26.4366 503.352 26.0808 503.025 25.8296C502.695 25.5785 502.305 25.5 501.905 25.6072L501.902 25.6072Z" fill="#046824"></path><path fill-rule="evenodd" clip-rule="evenodd" d="M474.863 1.67388L453.97 7.28572C453.499 7.4113 453.164 7.75926 453.049 8.23018C452.937 8.70372 453.081 9.1668 453.442 9.49121L474.536 28.4537C474.887 28.7703 475.363 28.8435 475.795 28.6525C476.226 28.4616 476.491 28.056 476.491 27.5825L476.491 2.91922C476.491 2.50323 476.313 2.14743 475.986 1.89627C475.656 1.64511 475.266 1.56662 474.866 1.67388L474.863 1.67388Z" fill="#046824"></path><path fill-rule="evenodd" clip-rule="evenodd" d="M420.793 17.9256L399.9 23.5374C399.429 23.663 399.094 24.011 398.979 24.4819C398.866 24.9554 399.01 25.4185 399.371 25.7429L420.466 44.7054C420.817 45.022 421.293 45.0952 421.724 44.9042C422.156 44.7133 422.42 44.3078 422.42 43.8342L422.42 19.1709C422.42 18.7549 422.243 18.3991 421.915 18.148C421.586 17.8968 421.196 17.8183 420.796 17.9256L420.793 17.9256Z" fill="#046824"></path><path fill-rule="evenodd" clip-rule="evenodd" d="M474.863 33.2903L453.97 38.9022C453.499 39.0278 453.164 39.3757 453.049 39.8466C452.937 40.3202 453.081 40.7833 453.442 41.1077L474.536 60.0702C474.887 60.3867 475.363 60.46 475.795 60.269C476.226 60.078 476.491 59.6725 476.491 59.1989L476.491 34.5357C476.491 34.1197 476.313 33.7639 475.986 33.5127C475.656 33.2616 475.266 33.1831 474.866 33.2903L474.863 33.2903Z" fill="#046824"></path><path fill-rule="evenodd" clip-rule="evenodd" d="M447.832 9.35528L426.939 14.9671C426.468 15.0927 426.133 15.4407 426.018 15.9116C425.905 16.3851 426.049 16.8482 426.41 17.1726L447.505 36.1351C447.856 36.4517 448.332 36.5249 448.764 36.3339C449.195 36.143 449.459 35.7374 449.459 35.2639L449.459 10.6006C449.459 10.1846 449.282 9.82882 448.955 9.57766C448.625 9.3265 448.235 9.24802 447.835 9.35528L447.832 9.35528Z" fill="#046824"></path><path fill-rule="evenodd" clip-rule="evenodd" d="M447.832 -21.6686L426.939 -16.0568C426.468 -15.9312 426.133 -15.5833 426.018 -15.1123C425.905 -14.6388 426.049 -14.1757 426.41 -13.8513L447.505 5.11118C447.856 5.42774 448.332 5.501 448.764 5.31001C449.195 5.11903 449.459 4.7135 449.459 4.23996L449.459 -20.4233C449.459 -20.8393 449.282 -21.1951 448.955 -21.4463C448.625 -21.6974 448.235 -21.7759 447.835 -21.6686L447.832 -21.6686Z" fill="#046824"></path><path fill-rule="evenodd" clip-rule="evenodd" d="M339.684 137.917L318.79 143.529C318.32 143.655 317.985 144.003 317.87 144.474C317.757 144.947 317.901 145.41 318.262 145.735L339.357 164.697C339.707 165.014 340.183 165.087 340.615 164.896C341.047 164.705 341.311 164.299 341.311 163.826L341.311 139.163C341.311 138.747 341.133 138.391 340.806 138.14C340.476 137.889 340.087 137.81 339.686 137.917L339.684 137.917Z" fill="#046824"></path><path fill-rule="evenodd" clip-rule="evenodd" d="M366.723 129.348L345.83 134.96C345.359 135.086 345.024 135.434 344.909 135.905C344.796 136.378 344.94 136.841 345.301 137.166L366.396 156.128C366.746 156.445 367.222 156.518 367.654 156.327C368.086 156.136 368.35 155.731 368.35 155.257L368.35 130.594C368.35 130.178 368.172 129.822 367.845 129.571C367.516 129.32 367.126 129.241 366.725 129.348L366.723 129.348Z" fill="#046824"></path><path fill-rule="evenodd" clip-rule="evenodd" d="M393.754 58.138L372.861 63.7498C372.39 63.8754 372.055 64.2234 371.94 64.6943C371.827 65.1678 371.971 65.6309 372.332 65.9553L393.427 84.9178C393.778 85.2344 394.254 85.3076 394.685 85.1167C395.117 84.9257 395.381 84.5201 395.381 84.0466L395.381 59.3833C395.381 58.9673 395.203 58.6115 394.876 58.3604C394.547 58.1092 394.157 58.0307 393.757 58.138L393.754 58.138Z" fill="#046824"></path><path fill-rule="evenodd" clip-rule="evenodd" d="M366.723 34.2044L345.83 39.8162C345.359 39.9418 345.024 40.2898 344.909 40.7607C344.796 41.2342 344.94 41.6973 345.301 42.0217L366.396 60.9842C366.746 61.3008 367.222 61.374 367.654 61.1831C368.086 60.9921 368.35 60.5865 368.35 60.113L368.35 35.4497C368.35 35.0338 368.172 34.6779 367.845 34.4268C367.516 34.1756 367.126 34.0971 366.725 34.2044L366.723 34.2044Z" fill="#046824"></path><path fill-rule="evenodd" clip-rule="evenodd" d="M420.793 49.5662L399.9 55.1781C399.429 55.3036 399.094 55.6516 398.979 56.1225C398.866 56.596 399.01 57.0591 399.371 57.3835L420.466 76.346C420.817 76.6626 421.293 76.7359 421.724 76.5449C422.156 76.3539 422.42 75.9484 422.42 75.4748L422.42 50.8115C422.42 50.3956 422.243 50.0398 421.915 49.7886C421.586 49.5374 421.196 49.4589 420.796 49.5662L420.793 49.5662Z" fill="#046824"></path><path fill-rule="evenodd" clip-rule="evenodd" d="M393.754 25.6326L372.861 31.2445C372.39 31.37 372.055 31.718 371.94 32.1889C371.827 32.6625 371.971 33.1255 372.332 33.45L393.427 52.4124C393.778 52.729 394.254 52.8023 394.685 52.6113C395.117 52.4203 395.381 52.0148 395.381 51.5412L395.381 26.878C395.381 26.462 395.203 26.1062 394.876 25.855C394.547 25.6038 394.157 25.5254 393.757 25.6326L393.754 25.6326Z" fill="#046824"></path><path fill-rule="evenodd" clip-rule="evenodd" d="M339.684 74.388L318.79 79.9998C318.32 80.1254 317.985 80.4734 317.87 80.9443C317.757 81.4178 317.901 81.8809 318.262 82.2053L339.357 101.168C339.707 101.484 340.183 101.558 340.615 101.367C341.047 101.176 341.311 100.77 341.311 100.297L341.311 75.6333C341.311 75.2174 341.133 74.8615 340.806 74.6104C340.476 74.3592 340.087 74.2807 339.686 74.388L339.684 74.388Z" fill="#046824"></path><path fill-rule="evenodd" clip-rule="evenodd" d="M366.723 65.8187L345.83 71.4305C345.359 71.5561 345.024 71.904 344.909 72.375C344.796 72.8485 344.94 73.3116 345.301 73.636L366.396 92.5985C366.746 92.915 367.222 92.9883 367.654 92.7973C368.086 92.6063 368.35 92.2008 368.35 91.7273L368.35 67.064C368.35 66.648 368.172 66.2922 367.845 66.041C367.516 65.7899 367.126 65.7114 366.725 65.8187L366.723 65.8187Z" fill="#046824"></path><path fill-rule="evenodd" clip-rule="evenodd" d="M339.684 41.8856L318.79 47.4974C318.32 47.623 317.985 47.9709 317.87 48.4419C317.757 48.9154 317.901 49.3785 318.262 49.7029L339.357 68.6654C339.707 68.9819 340.183 69.0552 340.615 68.8642C341.047 68.6732 341.311 68.2677 341.311 67.7942L341.311 43.1309C341.311 42.7149 341.133 42.3591 340.806 42.1079C340.476 41.8568 340.087 41.7783 339.686 41.8856L339.684 41.8856Z" fill="#046824"></path><path fill-rule="evenodd" clip-rule="evenodd" d="M393.754 -5.39229L372.861 0.219545C372.39 0.345123 372.055 0.693096 371.94 1.16402C371.827 1.63756 371.971 2.10062 372.332 2.42503L393.427 21.3875C393.778 21.7041 394.254 21.7774 394.685 21.5864C395.117 21.3954 395.381 20.9899 395.381 20.5163L395.381 -4.14696C395.381 -4.56294 395.203 -4.91875 394.876 -5.1699C394.547 -5.42106 394.157 -5.49956 393.757 -5.39229L393.754 -5.39229Z" fill="#046824"></path><path fill-rule="evenodd" clip-rule="evenodd" d="M420.793 -13.9607L399.9 -8.34881C399.429 -8.22324 399.094 -7.87526 398.979 -7.40434C398.866 -6.9308 399.01 -6.46774 399.371 -6.14333L420.466 12.8192C420.817 13.1357 421.293 13.209 421.724 13.018C422.156 12.827 422.42 12.4215 422.42 11.948L422.42 -12.7153C422.42 -13.1313 422.243 -13.4871 421.915 -13.7383C421.586 -13.9894 421.196 -14.0679 420.796 -13.9607L420.793 -13.9607Z" fill="#046824"></path><path fill-rule="evenodd" clip-rule="evenodd" d="M339.684 10.8587L318.79 16.4705C318.32 16.5961 317.985 16.9441 317.87 17.415C317.757 17.8885 317.901 18.3516 318.262 18.676L339.357 37.6385C339.707 37.9551 340.183 38.0283 340.615 37.8374C341.047 37.6464 341.311 37.2408 341.311 36.7673L341.311 12.104C341.311 11.688 341.133 11.3322 340.806 11.0811C340.476 10.8299 340.087 10.7514 339.686 10.8587L339.684 10.8587Z" fill="#046824"></path><path fill-rule="evenodd" clip-rule="evenodd" d="M366.723 2.29083L345.83 7.90265C345.359 8.02823 345.024 8.3762 344.909 8.84713C344.796 9.32067 344.94 9.78373 345.301 10.1081L366.396 29.0706C366.746 29.3872 367.222 29.4605 367.654 29.2695C368.086 29.0785 368.35 28.673 368.35 28.1994L368.35 3.53615C368.35 3.12016 368.172 2.76436 367.845 2.5132C367.516 2.26205 367.126 2.18357 366.725 2.29083L366.723 2.29083Z" fill="#046824"></path></g></g><defs><clipPath id="clip0_350_3220"><rect x="0.138672" width="560" height="250" rx="25" fill="white"></rect></clipPath></defs></svg> 