<?xml version="1.0" encoding="UTF-8"?> <svg xmlns="http://www.w3.org/2000/svg" width="561" height="250" viewBox="0 0 561 250" fill="none"><g clip-path="url(#clip0_389_3521)"><rect x="0.0615234" width="560" height="250" rx="25" fill="#252835"></rect><g opacity="0.05"><path fill-rule="evenodd" clip-rule="evenodd" d="M556.122 72.5892L535.228 78.201C534.758 78.3266 534.423 78.6745 534.308 79.1455C534.195 79.619 534.339 80.0821 534.7 80.4065L555.795 99.369C556.145 99.6856 556.621 99.7588 557.053 99.5678C557.485 99.3768 557.749 98.9713 557.749 98.4978L557.749 73.8345C557.749 73.4185 557.571 73.0627 557.244 72.8116C556.914 72.5604 556.525 72.4819 556.124 72.5892L556.122 72.5892Z" fill="white"></path><path fill-rule="evenodd" clip-rule="evenodd" d="M529.083 48.6561L508.189 54.2679C507.718 54.3935 507.384 54.7414 507.268 55.2124C507.156 55.6859 507.3 56.149 507.661 56.4734L528.756 75.4359C529.106 75.7525 529.582 75.8257 530.014 75.6347C530.446 75.4437 530.71 75.0382 530.71 74.5647L530.71 49.9014C530.71 49.4854 530.532 49.1296 530.205 48.8784C529.875 48.6273 529.486 48.5488 529.085 48.6561L529.083 48.6561Z" fill="white"></path><path fill-rule="evenodd" clip-rule="evenodd" d="M556.122 40.0857L535.228 45.6976C534.758 45.8232 534.423 46.1711 534.308 46.642C534.195 47.1156 534.339 47.5787 534.7 47.9031L555.795 66.8656C556.145 67.1821 556.621 67.2554 557.053 67.0644C557.485 66.8734 557.749 66.4679 557.749 65.9944L557.749 41.3311C557.749 40.9151 557.571 40.5593 557.244 40.3081C556.914 40.057 556.525 39.9785 556.124 40.0857L556.122 40.0857Z" fill="white"></path><path fill-rule="evenodd" clip-rule="evenodd" d="M501.825 152.664L480.932 158.276C480.461 158.402 480.126 158.75 480.011 159.221C479.898 159.694 480.042 160.157 480.403 160.482L501.498 179.444C501.848 179.761 502.325 179.834 502.756 179.643C503.188 179.452 503.452 179.047 503.452 178.573L503.452 153.91C503.452 153.494 503.274 153.138 502.947 152.887C502.618 152.636 502.228 152.557 501.827 152.664L501.825 152.664Z" fill="white"></path><path fill-rule="evenodd" clip-rule="evenodd" d="M474.786 128.732L453.893 134.344C453.422 134.47 453.087 134.818 452.972 135.289C452.859 135.762 453.003 136.225 453.364 136.55L474.459 155.512C474.809 155.829 475.285 155.902 475.717 155.711C476.149 155.52 476.413 155.115 476.413 154.641L476.413 129.978C476.413 129.562 476.235 129.206 475.908 128.955C475.579 128.704 475.189 128.625 474.788 128.732L474.786 128.732Z" fill="white"></path><path fill-rule="evenodd" clip-rule="evenodd" d="M501.825 120.161L480.932 125.773C480.461 125.898 480.126 126.246 480.011 126.717C479.898 127.191 480.042 127.654 480.403 127.978L501.498 146.941C501.848 147.257 502.325 147.33 502.756 147.139C503.188 146.948 503.452 146.543 503.452 146.069L503.452 121.406C503.452 120.99 503.274 120.634 502.947 120.383C502.618 120.132 502.228 120.053 501.827 120.161L501.825 120.161Z" fill="white"></path><path fill-rule="evenodd" clip-rule="evenodd" d="M447.755 168.917L426.861 174.529C426.39 174.654 426.055 175.002 425.94 175.473C425.828 175.947 425.972 176.41 426.333 176.734L447.427 195.697C447.778 196.013 448.254 196.086 448.686 195.895C449.118 195.704 449.382 195.299 449.382 194.825L449.382 170.162C449.382 169.746 449.204 169.39 448.877 169.139C448.547 168.888 448.157 168.81 447.757 168.917L447.755 168.917Z" fill="white"></path><path fill-rule="evenodd" clip-rule="evenodd" d="M420.715 144.98L399.822 150.592C399.351 150.718 399.016 151.066 398.901 151.537C398.789 152.01 398.933 152.473 399.294 152.798L420.388 171.76C420.739 172.077 421.215 172.15 421.647 171.959C422.079 171.768 422.343 171.362 422.343 170.889L422.343 146.226C422.343 145.81 422.165 145.454 421.838 145.203C421.508 144.952 421.118 144.873 420.718 144.98L420.715 144.98Z" fill="white"></path><path fill-rule="evenodd" clip-rule="evenodd" d="M474.786 160.347L453.893 165.958C453.422 166.084 453.087 166.432 452.972 166.903C452.859 167.376 453.003 167.84 453.364 168.164L474.459 187.126C474.809 187.443 475.285 187.516 475.717 187.325C476.149 187.134 476.413 186.729 476.413 186.255L476.413 161.592C476.413 161.176 476.235 160.82 475.908 160.569C475.579 160.318 475.189 160.239 474.788 160.347L474.786 160.347Z" fill="white"></path><path fill-rule="evenodd" clip-rule="evenodd" d="M447.755 136.412L426.861 142.024C426.39 142.15 426.055 142.498 425.94 142.969C425.828 143.442 425.972 143.905 426.333 144.23L447.427 163.192C447.778 163.509 448.254 163.582 448.686 163.391C449.118 163.2 449.382 162.795 449.382 162.321L449.382 137.658C449.382 137.242 449.204 136.886 448.877 136.635C448.547 136.384 448.157 136.305 447.757 136.412L447.755 136.412Z" fill="white"></path><path fill-rule="evenodd" clip-rule="evenodd" d="M501.825 89.1375L480.932 94.7493C480.461 94.8749 480.126 95.2229 480.011 95.6938C479.898 96.1673 480.042 96.6304 480.403 96.9548L501.498 115.917C501.848 116.234 502.325 116.307 502.756 116.116C503.188 115.925 503.452 115.52 503.452 115.046L503.452 90.3828C503.452 89.9669 503.274 89.6111 502.947 89.3599C502.618 89.1087 502.228 89.0302 501.827 89.1375L501.825 89.1375Z" fill="white"></path><path fill-rule="evenodd" clip-rule="evenodd" d="M474.786 65.2009L453.893 70.8127C453.422 70.9383 453.087 71.2862 452.972 71.7572C452.859 72.2307 453.003 72.6938 453.364 73.0182L474.459 91.9807C474.809 92.2972 475.285 92.3705 475.717 92.1795C476.149 91.9885 476.413 91.583 476.413 91.1095L476.413 66.4462C476.413 66.0302 476.235 65.6744 475.908 65.4232C475.579 65.1721 475.189 65.0936 474.788 65.2009L474.786 65.2009Z" fill="white"></path><path fill-rule="evenodd" clip-rule="evenodd" d="M501.825 56.6329L480.932 62.2447C480.461 62.3703 480.126 62.7182 480.011 63.1892C479.898 63.6627 480.042 64.1258 480.403 64.4502L501.498 83.4127C501.848 83.7293 502.325 83.8025 502.756 83.6115C503.188 83.4205 503.452 83.015 503.452 82.5415L503.452 57.8782C503.452 57.4622 503.274 57.1064 502.947 56.8553C502.618 56.6041 502.228 56.5256 501.827 56.6329L501.825 56.6329Z" fill="white"></path><path fill-rule="evenodd" clip-rule="evenodd" d="M474.786 96.8182L453.893 102.43C453.422 102.556 453.087 102.904 452.972 103.374C452.859 103.848 453.003 104.311 453.364 104.635L474.459 123.598C474.809 123.915 475.285 123.988 475.717 123.797C476.149 123.606 476.413 123.2 476.413 122.727L476.413 98.0635C476.413 97.6475 476.235 97.2917 475.908 97.0406C475.579 96.7894 475.189 96.7109 474.788 96.8182L474.786 96.8182Z" fill="white"></path><path fill-rule="evenodd" clip-rule="evenodd" d="M447.755 72.8851L426.861 78.4969C426.39 78.6225 426.055 78.9704 425.94 79.4414C425.828 79.9149 425.972 80.378 426.333 80.7024L447.427 99.6649C447.778 99.9815 448.254 100.055 448.686 99.8637C449.118 99.6727 449.382 99.2672 449.382 98.7937L449.382 74.1304C449.382 73.7144 449.204 73.3586 448.877 73.1074C448.547 72.8563 448.157 72.7778 447.757 72.8851L447.755 72.8851Z" fill="white"></path><path fill-rule="evenodd" clip-rule="evenodd" d="M501.825 25.6072L480.932 31.2191C480.461 31.3446 480.126 31.6926 480.011 32.1635C479.898 32.6371 480.042 33.1001 480.403 33.4246L501.498 52.3871C501.848 52.7036 502.325 52.7769 502.756 52.5859C503.188 52.3949 503.452 51.9894 503.452 51.5158L503.452 26.8526C503.452 26.4366 503.274 26.0808 502.947 25.8296C502.618 25.5785 502.228 25.5 501.827 25.6072L501.825 25.6072Z" fill="white"></path><path fill-rule="evenodd" clip-rule="evenodd" d="M474.786 1.67388L453.893 7.28572C453.422 7.4113 453.087 7.75926 452.972 8.23018C452.859 8.70372 453.003 9.1668 453.364 9.49121L474.459 28.4537C474.809 28.7703 475.285 28.8435 475.717 28.6525C476.149 28.4616 476.413 28.056 476.413 27.5825L476.413 2.91922C476.413 2.50323 476.235 2.14743 475.908 1.89627C475.579 1.64511 475.189 1.56662 474.788 1.67388L474.786 1.67388Z" fill="white"></path><path fill-rule="evenodd" clip-rule="evenodd" d="M420.715 17.9256L399.822 23.5374C399.351 23.663 399.016 24.011 398.901 24.4819C398.789 24.9554 398.933 25.4185 399.294 25.7429L420.388 44.7054C420.739 45.022 421.215 45.0952 421.647 44.9042C422.079 44.7133 422.343 44.3078 422.343 43.8342L422.343 19.1709C422.343 18.7549 422.165 18.3991 421.838 18.148C421.508 17.8968 421.118 17.8183 420.718 17.9256L420.715 17.9256Z" fill="white"></path><path fill-rule="evenodd" clip-rule="evenodd" d="M474.786 33.2903L453.893 38.9022C453.422 39.0278 453.087 39.3757 452.972 39.8466C452.859 40.3202 453.003 40.7833 453.364 41.1077L474.459 60.0702C474.809 60.3867 475.285 60.46 475.717 60.269C476.149 60.078 476.413 59.6725 476.413 59.1989L476.413 34.5357C476.413 34.1197 476.235 33.7639 475.908 33.5127C475.579 33.2616 475.189 33.1831 474.788 33.2903L474.786 33.2903Z" fill="white"></path><path fill-rule="evenodd" clip-rule="evenodd" d="M447.755 9.35528L426.861 14.9671C426.39 15.0927 426.055 15.4407 425.94 15.9116C425.828 16.3851 425.972 16.8482 426.333 17.1726L447.427 36.1351C447.778 36.4517 448.254 36.5249 448.686 36.3339C449.118 36.143 449.382 35.7374 449.382 35.2639L449.382 10.6006C449.382 10.1846 449.204 9.82882 448.877 9.57766C448.547 9.3265 448.157 9.24802 447.757 9.35528L447.755 9.35528Z" fill="white"></path><path fill-rule="evenodd" clip-rule="evenodd" d="M447.755 -21.6686L426.861 -16.0568C426.39 -15.9312 426.055 -15.5833 425.94 -15.1123C425.828 -14.6388 425.972 -14.1757 426.333 -13.8513L447.427 5.11118C447.778 5.42774 448.254 5.501 448.686 5.31001C449.118 5.11903 449.382 4.7135 449.382 4.23996L449.382 -20.4233C449.382 -20.8393 449.204 -21.1951 448.877 -21.4463C448.547 -21.6974 448.157 -21.7759 447.757 -21.6686L447.755 -21.6686Z" fill="white"></path><path fill-rule="evenodd" clip-rule="evenodd" d="M339.606 137.917L318.713 143.529C318.242 143.655 317.907 144.003 317.792 144.474C317.679 144.947 317.823 145.41 318.184 145.735L339.279 164.697C339.63 165.014 340.106 165.087 340.537 164.896C340.969 164.705 341.233 164.299 341.233 163.826L341.233 139.163C341.233 138.747 341.055 138.391 340.728 138.14C340.399 137.889 340.009 137.81 339.609 137.917L339.606 137.917Z" fill="white"></path><path fill-rule="evenodd" clip-rule="evenodd" d="M366.645 129.348L345.752 134.96C345.281 135.086 344.946 135.434 344.831 135.905C344.718 136.378 344.862 136.841 345.223 137.166L366.318 156.128C366.669 156.445 367.145 156.518 367.577 156.327C368.008 156.136 368.272 155.731 368.272 155.257L368.272 130.594C368.272 130.178 368.095 129.822 367.768 129.571C367.438 129.32 367.048 129.241 366.648 129.348L366.645 129.348Z" fill="white"></path><path fill-rule="evenodd" clip-rule="evenodd" d="M393.676 58.138L372.783 63.7498C372.312 63.8754 371.977 64.2234 371.862 64.6943C371.75 65.1678 371.894 65.6309 372.255 65.9553L393.349 84.9178C393.7 85.2344 394.176 85.3076 394.608 85.1167C395.039 84.9257 395.304 84.5201 395.304 84.0466L395.304 59.3833C395.304 58.9673 395.126 58.6115 394.799 58.3604C394.469 58.1092 394.079 58.0307 393.679 58.138L393.676 58.138Z" fill="white"></path><path fill-rule="evenodd" clip-rule="evenodd" d="M366.645 34.2044L345.752 39.8162C345.281 39.9418 344.946 40.2898 344.831 40.7607C344.718 41.2342 344.862 41.6973 345.223 42.0217L366.318 60.9842C366.669 61.3008 367.145 61.374 367.577 61.1831C368.008 60.9921 368.272 60.5865 368.272 60.113L368.272 35.4497C368.272 35.0338 368.095 34.6779 367.768 34.4268C367.438 34.1756 367.048 34.0971 366.648 34.2044L366.645 34.2044Z" fill="white"></path><path fill-rule="evenodd" clip-rule="evenodd" d="M420.715 49.5662L399.822 55.1781C399.351 55.3036 399.016 55.6516 398.901 56.1225C398.789 56.596 398.933 57.0591 399.294 57.3835L420.388 76.346C420.739 76.6626 421.215 76.7359 421.647 76.5449C422.079 76.3539 422.343 75.9484 422.343 75.4748L422.343 50.8115C422.343 50.3956 422.165 50.0398 421.838 49.7886C421.508 49.5374 421.118 49.4589 420.718 49.5662L420.715 49.5662Z" fill="white"></path><path fill-rule="evenodd" clip-rule="evenodd" d="M393.676 25.6326L372.783 31.2445C372.312 31.37 371.977 31.718 371.862 32.1889C371.75 32.6625 371.894 33.1255 372.255 33.45L393.349 52.4124C393.7 52.729 394.176 52.8023 394.608 52.6113C395.039 52.4203 395.304 52.0148 395.304 51.5412L395.304 26.878C395.304 26.462 395.126 26.1062 394.799 25.855C394.469 25.6038 394.079 25.5254 393.679 25.6326L393.676 25.6326Z" fill="white"></path><path fill-rule="evenodd" clip-rule="evenodd" d="M339.606 74.388L318.713 79.9998C318.242 80.1254 317.907 80.4734 317.792 80.9443C317.679 81.4178 317.823 81.8809 318.184 82.2053L339.279 101.168C339.63 101.484 340.106 101.558 340.537 101.367C340.969 101.176 341.233 100.77 341.233 100.297L341.233 75.6333C341.233 75.2173 341.055 74.8615 340.728 74.6104C340.399 74.3592 340.009 74.2807 339.609 74.388L339.606 74.388Z" fill="white"></path><path fill-rule="evenodd" clip-rule="evenodd" d="M366.645 65.8187L345.752 71.4305C345.281 71.5561 344.946 71.904 344.831 72.375C344.718 72.8485 344.862 73.3116 345.223 73.636L366.318 92.5985C366.669 92.915 367.145 92.9883 367.577 92.7973C368.008 92.6063 368.272 92.2008 368.272 91.7273L368.272 67.064C368.272 66.648 368.095 66.2922 367.768 66.041C367.438 65.7899 367.048 65.7114 366.648 65.8187L366.645 65.8187Z" fill="white"></path><path fill-rule="evenodd" clip-rule="evenodd" d="M339.606 41.8856L318.713 47.4974C318.242 47.623 317.907 47.9709 317.792 48.4419C317.679 48.9154 317.823 49.3785 318.184 49.7029L339.279 68.6654C339.63 68.9819 340.106 69.0552 340.537 68.8642C340.969 68.6732 341.233 68.2677 341.233 67.7942L341.233 43.1309C341.233 42.7149 341.055 42.3591 340.728 42.1079C340.399 41.8568 340.009 41.7783 339.609 41.8856L339.606 41.8856Z" fill="white"></path><path fill-rule="evenodd" clip-rule="evenodd" d="M393.676 -5.39229L372.783 0.219545C372.312 0.345124 371.977 0.693096 371.862 1.16402C371.75 1.63756 371.894 2.10062 372.255 2.42503L393.349 21.3875C393.7 21.7041 394.176 21.7774 394.608 21.5864C395.039 21.3954 395.304 20.9899 395.304 20.5163L395.304 -4.14696C395.304 -4.56294 395.126 -4.91874 394.799 -5.1699C394.469 -5.42106 394.079 -5.49956 393.679 -5.39229L393.676 -5.39229Z" fill="white"></path><path fill-rule="evenodd" clip-rule="evenodd" d="M420.715 -13.9607L399.822 -8.34881C399.351 -8.22324 399.016 -7.87526 398.901 -7.40434C398.789 -6.9308 398.933 -6.46774 399.294 -6.14333L420.388 12.8192C420.739 13.1357 421.215 13.209 421.647 13.018C422.079 12.827 422.343 12.4215 422.343 11.948L422.343 -12.7153C422.343 -13.1313 422.165 -13.4871 421.838 -13.7383C421.508 -13.9894 421.118 -14.0679 420.718 -13.9607L420.715 -13.9607Z" fill="white"></path><path fill-rule="evenodd" clip-rule="evenodd" d="M339.606 10.8587L318.713 16.4705C318.242 16.5961 317.907 16.9441 317.792 17.415C317.679 17.8885 317.823 18.3516 318.184 18.676L339.279 37.6385C339.63 37.9551 340.106 38.0283 340.537 37.8374C340.969 37.6464 341.233 37.2408 341.233 36.7673L341.233 12.104C341.233 11.688 341.055 11.3322 340.728 11.0811C340.399 10.8299 340.009 10.7514 339.609 10.8587L339.606 10.8587Z" fill="white"></path><path fill-rule="evenodd" clip-rule="evenodd" d="M366.645 2.29083L345.752 7.90265C345.281 8.02823 344.946 8.3762 344.831 8.84713C344.718 9.32067 344.862 9.78373 345.223 10.1081L366.318 29.0706C366.669 29.3872 367.145 29.4605 367.577 29.2695C368.008 29.0785 368.272 28.673 368.272 28.1994L368.272 3.53615C368.272 3.12017 368.095 2.76436 367.768 2.51321C367.438 2.26205 367.048 2.18357 366.648 2.29083L366.645 2.29083Z" fill="white"></path></g></g><defs><clipPath id="clip0_389_3521"><rect x="0.0615234" width="560" height="250" rx="25" fill="white"></rect></clipPath></defs></svg> 